<mxfile host="Electron" agent="Mozilla/5.0 (Windows NT 10.0; Win64; x64) AppleWebKit/537.36 (KHTML, like Gecko) draw.io/27.0.9 Chrome/134.0.6998.205 Electron/35.4.0 Safari/537.36" version="27.0.9">
  <diagram name="Page-1" id="-204D-Xl4FRK-wJm29R8">
    <mxGraphModel dx="2377" dy="1482" grid="1" gridSize="10" guides="1" tooltips="1" connect="1" arrows="1" fold="1" page="1" pageScale="1" pageWidth="1600" pageHeight="900" math="0" shadow="0">
      <root>
        <mxCell id="0" />
        <mxCell id="1" parent="0" />
        <mxCell id="ihhCMKZN7UIY24i0vxse-201" value="" style="rounded=0;whiteSpace=wrap;html=1;fillColor=none;strokeWidth=2;" parent="1" vertex="1">
          <mxGeometry x="40" y="560" width="920" height="280" as="geometry" />
        </mxCell>
        <mxCell id="ihhCMKZN7UIY24i0vxse-97" value="" style="whiteSpace=wrap;html=1;fillColor=none;strokeColor=#FF0000;rounded=0;" parent="1" vertex="1">
          <mxGeometry x="2880" y="77.5" width="200" height="445" as="geometry" />
        </mxCell>
        <mxCell id="ihhCMKZN7UIY24i0vxse-85" value="" style="whiteSpace=wrap;html=1;fillColor=none;strokeColor=#FF0000;rounded=0;" parent="1" vertex="1">
          <mxGeometry x="2600" y="77.5" width="200" height="445" as="geometry" />
        </mxCell>
        <mxCell id="ihhCMKZN7UIY24i0vxse-64" value="" style="whiteSpace=wrap;html=1;fillColor=none;strokeColor=#009900;rounded=0;" parent="1" vertex="1">
          <mxGeometry x="2000" y="77.5" width="480" height="445" as="geometry" />
        </mxCell>
        <mxCell id="ihhCMKZN7UIY24i0vxse-57" value="" style="whiteSpace=wrap;html=1;fillColor=none;strokeColor=#007FFF;rounded=0;" parent="1" vertex="1">
          <mxGeometry x="1400" y="77.5" width="480" height="445" as="geometry" />
        </mxCell>
        <mxCell id="ihhCMKZN7UIY24i0vxse-1" value="" style="rounded=0;whiteSpace=wrap;html=1;fillColor=none;strokeWidth=2;" parent="1" vertex="1">
          <mxGeometry x="40" y="40" width="400" height="400" as="geometry" />
        </mxCell>
        <mxCell id="ihhCMKZN7UIY24i0vxse-6" style="edgeStyle=orthogonalEdgeStyle;rounded=0;orthogonalLoop=1;jettySize=auto;html=1;" parent="1" source="ihhCMKZN7UIY24i0vxse-2" target="ihhCMKZN7UIY24i0vxse-4" edge="1">
          <mxGeometry relative="1" as="geometry" />
        </mxCell>
        <mxCell id="ihhCMKZN7UIY24i0vxse-2" value="&lt;font&gt;Admin/MD&lt;/font&gt;" style="ellipse;whiteSpace=wrap;html=1;aspect=fixed;fillColor=none;strokeColor=#007FFF;fontFamily=Helvetica;rounded=0;" parent="1" vertex="1">
          <mxGeometry x="60" y="60" width="80" height="80" as="geometry" />
        </mxCell>
        <mxCell id="ihhCMKZN7UIY24i0vxse-4" value="Admin Panel / MD" style="text;html=1;align=center;verticalAlign=middle;whiteSpace=wrap;rounded=0;fontFamily=Helvetica;strokeColor=#000099;fillColor=#000066;opacity=30;" parent="1" vertex="1">
          <mxGeometry x="240" y="85" width="160" height="30" as="geometry" />
        </mxCell>
        <mxCell id="ihhCMKZN7UIY24i0vxse-9" style="edgeStyle=orthogonalEdgeStyle;rounded=0;orthogonalLoop=1;jettySize=auto;html=1;" parent="1" source="ihhCMKZN7UIY24i0vxse-7" target="ihhCMKZN7UIY24i0vxse-8" edge="1">
          <mxGeometry relative="1" as="geometry" />
        </mxCell>
        <mxCell id="ihhCMKZN7UIY24i0vxse-7" value="Accounts" style="triangle;whiteSpace=wrap;html=1;strokeColor=#009900;fillColor=none;rounded=0;" parent="1" vertex="1">
          <mxGeometry x="70" y="180" width="60" height="80" as="geometry" />
        </mxCell>
        <mxCell id="ihhCMKZN7UIY24i0vxse-8" value="Accounts" style="text;html=1;align=center;verticalAlign=middle;whiteSpace=wrap;rounded=0;fontFamily=Helvetica;fillColor=#00994D;strokeColor=#009900;opacity=30;" parent="1" vertex="1">
          <mxGeometry x="240" y="205" width="160" height="30" as="geometry" />
        </mxCell>
        <mxCell id="ihhCMKZN7UIY24i0vxse-10" value="&lt;h1 style=&quot;margin-top: 0px;&quot;&gt;&lt;font style=&quot;color: rgb(0, 127, 255);&quot;&gt;Core Principle&lt;/font&gt;&lt;br&gt;&lt;/h1&gt;&lt;div&gt;ERP - Entity Resource Planing:&lt;/div&gt;&lt;div&gt;Based on role&#39;s and functionality be layed on color&#39;s.&lt;/div&gt;&lt;div&gt;&lt;br&gt;&lt;/div&gt;&lt;div&gt;&lt;span style=&quot;white-space: pre;&quot;&gt;&#x9;&lt;/span&gt;Therefore mentioned color&#39;s be helps to roll the functionalities based on role&#39;s.&lt;/div&gt;" style="text;html=1;whiteSpace=wrap;overflow=hidden;rounded=0;" parent="1" vertex="1">
          <mxGeometry x="480" y="40" width="240" height="160" as="geometry" />
        </mxCell>
        <mxCell id="ihhCMKZN7UIY24i0vxse-14" style="edgeStyle=orthogonalEdgeStyle;rounded=0;orthogonalLoop=1;jettySize=auto;html=1;entryX=0;entryY=0.5;entryDx=0;entryDy=0;" parent="1" source="ihhCMKZN7UIY24i0vxse-12" target="ihhCMKZN7UIY24i0vxse-13" edge="1">
          <mxGeometry relative="1" as="geometry" />
        </mxCell>
        <mxCell id="ihhCMKZN7UIY24i0vxse-12" value="Other" style="whiteSpace=wrap;html=1;aspect=fixed;fillColor=none;strokeColor=#FF0000;rounded=0;" parent="1" vertex="1">
          <mxGeometry x="60" y="304" width="80" height="80" as="geometry" />
        </mxCell>
        <mxCell id="ihhCMKZN7UIY24i0vxse-13" value="Site Supervisor,&lt;div&gt;other individual&#39;s&lt;/div&gt;" style="text;html=1;align=center;verticalAlign=middle;whiteSpace=wrap;rounded=0;fontFamily=Helvetica;fillColor=#FF0000;strokeColor=none;opacity=30;" parent="1" vertex="1">
          <mxGeometry x="240" y="320" width="160" height="50" as="geometry" />
        </mxCell>
        <mxCell id="ihhCMKZN7UIY24i0vxse-15" value="&lt;h1 style=&quot;margin-top: 0px;&quot;&gt;&lt;font style=&quot;color: rgb(0, 127, 255);&quot;&gt;🔐Security &amp;amp; Role&lt;/font&gt;&lt;/h1&gt;&lt;div&gt;&lt;font style=&quot;color: rgb(0, 0, 153);&quot;&gt;&lt;br&gt;&lt;/font&gt;&lt;/div&gt;&lt;div&gt;&lt;font style=&quot;color: rgb(0, 127, 255);&quot;&gt;MD&amp;nbsp; | Full control, override, user creation, edit/delete everything&lt;/font&gt;&lt;/div&gt;" style="text;html=1;whiteSpace=wrap;overflow=hidden;rounded=0;" parent="1" vertex="1">
          <mxGeometry x="480" y="240" width="240" height="160" as="geometry" />
        </mxCell>
        <mxCell id="ihhCMKZN7UIY24i0vxse-38" value="" style="edgeStyle=orthogonalEdgeStyle;rounded=0;orthogonalLoop=1;jettySize=auto;html=1;" parent="1" source="ihhCMKZN7UIY24i0vxse-36" target="ihhCMKZN7UIY24i0vxse-37" edge="1">
          <mxGeometry relative="1" as="geometry" />
        </mxCell>
        <mxCell id="ihhCMKZN7UIY24i0vxse-60" value="" style="edgeStyle=orthogonalEdgeStyle;rounded=0;orthogonalLoop=1;jettySize=auto;html=1;" parent="1" source="ihhCMKZN7UIY24i0vxse-36" target="ihhCMKZN7UIY24i0vxse-37" edge="1">
          <mxGeometry relative="1" as="geometry" />
        </mxCell>
        <mxCell id="ihhCMKZN7UIY24i0vxse-36" value="&lt;font&gt;Admin/MD&lt;/font&gt;" style="ellipse;whiteSpace=wrap;html=1;aspect=fixed;fillColor=none;strokeColor=#007FFF;fontFamily=Helvetica;rounded=0;" parent="1" vertex="1">
          <mxGeometry x="1440" y="120" width="80" height="80" as="geometry" />
        </mxCell>
        <mxCell id="ihhCMKZN7UIY24i0vxse-55" value="" style="edgeStyle=orthogonalEdgeStyle;rounded=0;orthogonalLoop=1;jettySize=auto;html=1;" parent="1" source="ihhCMKZN7UIY24i0vxse-37" target="ihhCMKZN7UIY24i0vxse-54" edge="1">
          <mxGeometry relative="1" as="geometry" />
        </mxCell>
        <mxCell id="ihhCMKZN7UIY24i0vxse-37" value="Full access" style="rhombus;whiteSpace=wrap;html=1;fillColor=none;strokeColor=#007FFF;rounded=0;" parent="1" vertex="1">
          <mxGeometry x="1600" y="120" width="80" height="80" as="geometry" />
        </mxCell>
        <mxCell id="ihhCMKZN7UIY24i0vxse-49" style="edgeStyle=orthogonalEdgeStyle;rounded=0;orthogonalLoop=1;jettySize=auto;html=1;" parent="1" source="ihhCMKZN7UIY24i0vxse-39" target="ihhCMKZN7UIY24i0vxse-48" edge="1">
          <mxGeometry relative="1" as="geometry" />
        </mxCell>
        <mxCell id="ihhCMKZN7UIY24i0vxse-39" value="Create" style="whiteSpace=wrap;html=1;fillColor=none;strokeColor=#007FFF;rounded=0;" parent="1" vertex="1">
          <mxGeometry x="1440" y="280" width="120" height="40" as="geometry" />
        </mxCell>
        <mxCell id="ihhCMKZN7UIY24i0vxse-42" value="" style="endArrow=classic;html=1;rounded=0;exitX=0.5;exitY=1;exitDx=0;exitDy=0;entryX=0.5;entryY=0;entryDx=0;entryDy=0;" parent="1" source="ihhCMKZN7UIY24i0vxse-37" target="ihhCMKZN7UIY24i0vxse-39" edge="1">
          <mxGeometry width="50" height="50" relative="1" as="geometry">
            <mxPoint x="1490" y="250" as="sourcePoint" />
            <mxPoint x="1540" y="200" as="targetPoint" />
          </mxGeometry>
        </mxCell>
        <mxCell id="ihhCMKZN7UIY24i0vxse-51" style="edgeStyle=orthogonalEdgeStyle;rounded=0;orthogonalLoop=1;jettySize=auto;html=1;entryX=0.5;entryY=0;entryDx=0;entryDy=0;" parent="1" source="ihhCMKZN7UIY24i0vxse-43" target="ihhCMKZN7UIY24i0vxse-48" edge="1">
          <mxGeometry relative="1" as="geometry" />
        </mxCell>
        <mxCell id="ihhCMKZN7UIY24i0vxse-43" value="Delete" style="whiteSpace=wrap;html=1;fillColor=none;strokeColor=#007FFF;rounded=0;" parent="1" vertex="1">
          <mxGeometry x="1720" y="280" width="120" height="40" as="geometry" />
        </mxCell>
        <mxCell id="ihhCMKZN7UIY24i0vxse-50" style="edgeStyle=orthogonalEdgeStyle;rounded=0;orthogonalLoop=1;jettySize=auto;html=1;entryX=0.5;entryY=0;entryDx=0;entryDy=0;" parent="1" source="ihhCMKZN7UIY24i0vxse-44" target="ihhCMKZN7UIY24i0vxse-48" edge="1">
          <mxGeometry relative="1" as="geometry" />
        </mxCell>
        <mxCell id="ihhCMKZN7UIY24i0vxse-44" value="Edit" style="whiteSpace=wrap;html=1;fillColor=none;strokeColor=#007FFF;rounded=0;" parent="1" vertex="1">
          <mxGeometry x="1580" y="280" width="120" height="40" as="geometry" />
        </mxCell>
        <mxCell id="ihhCMKZN7UIY24i0vxse-46" value="" style="endArrow=classic;html=1;rounded=0;exitX=0.5;exitY=1;exitDx=0;exitDy=0;" parent="1" source="ihhCMKZN7UIY24i0vxse-37" target="ihhCMKZN7UIY24i0vxse-44" edge="1">
          <mxGeometry width="50" height="50" relative="1" as="geometry">
            <mxPoint x="1650" y="210" as="sourcePoint" />
            <mxPoint x="1470" y="290" as="targetPoint" />
          </mxGeometry>
        </mxCell>
        <mxCell id="ihhCMKZN7UIY24i0vxse-47" value="" style="endArrow=classic;html=1;rounded=0;exitX=0.5;exitY=1;exitDx=0;exitDy=0;entryX=0.5;entryY=0;entryDx=0;entryDy=0;" parent="1" source="ihhCMKZN7UIY24i0vxse-37" target="ihhCMKZN7UIY24i0vxse-43" edge="1">
          <mxGeometry width="50" height="50" relative="1" as="geometry">
            <mxPoint x="1660" y="220" as="sourcePoint" />
            <mxPoint x="1480" y="300" as="targetPoint" />
          </mxGeometry>
        </mxCell>
        <mxCell id="ihhCMKZN7UIY24i0vxse-53" style="edgeStyle=orthogonalEdgeStyle;rounded=0;orthogonalLoop=1;jettySize=auto;html=1;entryX=0.5;entryY=0;entryDx=0;entryDy=0;" parent="1" source="ihhCMKZN7UIY24i0vxse-48" target="ihhCMKZN7UIY24i0vxse-52" edge="1">
          <mxGeometry relative="1" as="geometry" />
        </mxCell>
        <mxCell id="ihhCMKZN7UIY24i0vxse-48" value="Users, Sites, Budgets" style="whiteSpace=wrap;html=1;fillColor=none;strokeColor=#007FFF;rounded=0;" parent="1" vertex="1">
          <mxGeometry x="1440" y="360" width="400" height="40" as="geometry" />
        </mxCell>
        <mxCell id="ihhCMKZN7UIY24i0vxse-52" value="View all reports" style="whiteSpace=wrap;html=1;fillColor=none;strokeColor=#007FFF;rounded=0;" parent="1" vertex="1">
          <mxGeometry x="1440" y="440" width="400" height="40" as="geometry" />
        </mxCell>
        <mxCell id="ihhCMKZN7UIY24i0vxse-54" value="Daily&lt;div&gt;Activities&lt;/div&gt;" style="rhombus;whiteSpace=wrap;html=1;fillColor=none;strokeColor=#007FFF;rounded=0;" parent="1" vertex="1">
          <mxGeometry x="1760" y="120" width="80" height="80" as="geometry" />
        </mxCell>
        <mxCell id="ihhCMKZN7UIY24i0vxse-59" value="&lt;b&gt;&lt;font style=&quot;font-size: 20px;&quot;&gt;MD/Partner&lt;/font&gt;&lt;/b&gt;" style="text;html=1;align=center;verticalAlign=middle;whiteSpace=wrap;rounded=0;fontColor=#007FFF;" parent="1" vertex="1">
          <mxGeometry x="1545" y="40" width="190" height="30" as="geometry" />
        </mxCell>
        <mxCell id="ihhCMKZN7UIY24i0vxse-66" value="" style="edgeStyle=orthogonalEdgeStyle;rounded=0;orthogonalLoop=1;jettySize=auto;html=1;" parent="1" source="ihhCMKZN7UIY24i0vxse-63" target="ihhCMKZN7UIY24i0vxse-65" edge="1">
          <mxGeometry relative="1" as="geometry" />
        </mxCell>
        <mxCell id="ihhCMKZN7UIY24i0vxse-63" value="Accounts" style="triangle;whiteSpace=wrap;html=1;strokeColor=#009900;fillColor=none;rounded=0;" parent="1" vertex="1">
          <mxGeometry x="2040" y="115" width="60" height="80" as="geometry" />
        </mxCell>
        <mxCell id="ihhCMKZN7UIY24i0vxse-68" value="" style="edgeStyle=orthogonalEdgeStyle;rounded=0;orthogonalLoop=1;jettySize=auto;html=1;" parent="1" source="ihhCMKZN7UIY24i0vxse-65" target="ihhCMKZN7UIY24i0vxse-67" edge="1">
          <mxGeometry relative="1" as="geometry" />
        </mxCell>
        <mxCell id="ihhCMKZN7UIY24i0vxse-79" value="" style="edgeStyle=orthogonalEdgeStyle;rounded=0;orthogonalLoop=1;jettySize=auto;html=1;" parent="1" source="ihhCMKZN7UIY24i0vxse-65" target="ihhCMKZN7UIY24i0vxse-78" edge="1">
          <mxGeometry relative="1" as="geometry" />
        </mxCell>
        <mxCell id="ihhCMKZN7UIY24i0vxse-65" value="Add&lt;div&gt;Expenses&lt;/div&gt;" style="rhombus;whiteSpace=wrap;html=1;fillColor=none;strokeColor=#009900;rounded=0;" parent="1" vertex="1">
          <mxGeometry x="2200" y="115" width="80" height="80" as="geometry" />
        </mxCell>
        <mxCell id="ihhCMKZN7UIY24i0vxse-67" value="Office/Site" style="rhombus;whiteSpace=wrap;html=1;fillColor=none;strokeColor=#009900;rounded=0;" parent="1" vertex="1">
          <mxGeometry x="2360" y="115" width="80" height="80" as="geometry" />
        </mxCell>
        <mxCell id="ihhCMKZN7UIY24i0vxse-81" value="" style="edgeStyle=orthogonalEdgeStyle;rounded=0;orthogonalLoop=1;jettySize=auto;html=1;" parent="1" source="ihhCMKZN7UIY24i0vxse-78" target="ihhCMKZN7UIY24i0vxse-80" edge="1">
          <mxGeometry relative="1" as="geometry" />
        </mxCell>
        <mxCell id="ihhCMKZN7UIY24i0vxse-78" value="Process Requirements" style="whiteSpace=wrap;html=1;fillColor=none;strokeColor=#009900;rounded=0;" parent="1" vertex="1">
          <mxGeometry x="2040" y="360" width="400" height="40" as="geometry" />
        </mxCell>
        <mxCell id="ihhCMKZN7UIY24i0vxse-80" value="Submit for Approval" style="whiteSpace=wrap;html=1;fillColor=none;strokeColor=#009900;rounded=0;" parent="1" vertex="1">
          <mxGeometry x="2040" y="440" width="400" height="40" as="geometry" />
        </mxCell>
        <mxCell id="ihhCMKZN7UIY24i0vxse-83" value="&lt;b&gt;&lt;font style=&quot;font-size: 20px;&quot;&gt;Accountant&lt;/font&gt;&lt;/b&gt;" style="text;html=1;align=center;verticalAlign=middle;whiteSpace=wrap;rounded=0;fontColor=#009900;" parent="1" vertex="1">
          <mxGeometry x="2180" y="40" width="120" height="30" as="geometry" />
        </mxCell>
        <mxCell id="ihhCMKZN7UIY24i0vxse-89" value="" style="edgeStyle=orthogonalEdgeStyle;rounded=0;orthogonalLoop=1;jettySize=auto;html=1;" parent="1" source="ihhCMKZN7UIY24i0vxse-84" target="ihhCMKZN7UIY24i0vxse-88" edge="1">
          <mxGeometry relative="1" as="geometry" />
        </mxCell>
        <mxCell id="ihhCMKZN7UIY24i0vxse-84" value="SIte&lt;div&gt;Supervisor&lt;/div&gt;" style="whiteSpace=wrap;html=1;aspect=fixed;fillColor=none;strokeColor=#FF0000;rounded=0;" parent="1" vertex="1">
          <mxGeometry x="2640" y="120" width="120" height="120" as="geometry" />
        </mxCell>
        <mxCell id="ihhCMKZN7UIY24i0vxse-99" value="" style="edgeStyle=orthogonalEdgeStyle;rounded=0;orthogonalLoop=1;jettySize=auto;html=1;" parent="1" source="ihhCMKZN7UIY24i0vxse-88" target="ihhCMKZN7UIY24i0vxse-98" edge="1">
          <mxGeometry relative="1" as="geometry" />
        </mxCell>
        <mxCell id="ihhCMKZN7UIY24i0vxse-88" value="Submit the Site Expenses" style="whiteSpace=wrap;html=1;fillColor=none;strokeColor=#FF0000;rounded=0;" parent="1" vertex="1">
          <mxGeometry x="2640" y="280" width="120" height="40" as="geometry" />
        </mxCell>
        <mxCell id="ihhCMKZN7UIY24i0vxse-90" value="Raise Requirement Request" style="whiteSpace=wrap;html=1;fillColor=none;strokeColor=#FF0000;rounded=0;" parent="1" vertex="1">
          <mxGeometry x="2640" y="440" width="120" height="40" as="geometry" />
        </mxCell>
        <mxCell id="ihhCMKZN7UIY24i0vxse-92" value="" style="edgeStyle=orthogonalEdgeStyle;rounded=0;orthogonalLoop=1;jettySize=auto;html=1;" parent="1" source="ihhCMKZN7UIY24i0vxse-93" target="ihhCMKZN7UIY24i0vxse-94" edge="1">
          <mxGeometry relative="1" as="geometry" />
        </mxCell>
        <mxCell id="ihhCMKZN7UIY24i0vxse-93" value="Other Individuals&lt;div&gt;(Staff)&lt;/div&gt;" style="whiteSpace=wrap;html=1;aspect=fixed;fillColor=none;strokeColor=#FF0000;rounded=0;" parent="1" vertex="1">
          <mxGeometry x="2920" y="120" width="120" height="120" as="geometry" />
        </mxCell>
        <mxCell id="ihhCMKZN7UIY24i0vxse-103" value="" style="edgeStyle=orthogonalEdgeStyle;rounded=0;orthogonalLoop=1;jettySize=auto;html=1;" parent="1" source="ihhCMKZN7UIY24i0vxse-94" target="ihhCMKZN7UIY24i0vxse-102" edge="1">
          <mxGeometry relative="1" as="geometry" />
        </mxCell>
        <mxCell id="ihhCMKZN7UIY24i0vxse-94" value="Submit their entries" style="whiteSpace=wrap;html=1;fillColor=none;strokeColor=#FF0000;rounded=0;" parent="1" vertex="1">
          <mxGeometry x="2920" y="280" width="120" height="40" as="geometry" />
        </mxCell>
        <mxCell id="ihhCMKZN7UIY24i0vxse-95" value="Raise Request&lt;div&gt;(Permission-based&lt;/div&gt;" style="whiteSpace=wrap;html=1;fillColor=none;strokeColor=#FF0000;rounded=0;" parent="1" vertex="1">
          <mxGeometry x="2920" y="440" width="120" height="40" as="geometry" />
        </mxCell>
        <mxCell id="ihhCMKZN7UIY24i0vxse-101" style="edgeStyle=orthogonalEdgeStyle;rounded=0;orthogonalLoop=1;jettySize=auto;html=1;" parent="1" source="ihhCMKZN7UIY24i0vxse-98" target="ihhCMKZN7UIY24i0vxse-90" edge="1">
          <mxGeometry relative="1" as="geometry" />
        </mxCell>
        <mxCell id="ihhCMKZN7UIY24i0vxse-98" value="Labour/Materials" style="whiteSpace=wrap;html=1;fillColor=none;strokeColor=#FF0000;rounded=0;" parent="1" vertex="1">
          <mxGeometry x="2640" y="360" width="120" height="40" as="geometry" />
        </mxCell>
        <mxCell id="ihhCMKZN7UIY24i0vxse-104" style="edgeStyle=orthogonalEdgeStyle;rounded=0;orthogonalLoop=1;jettySize=auto;html=1;entryX=0.5;entryY=0;entryDx=0;entryDy=0;" parent="1" source="ihhCMKZN7UIY24i0vxse-102" target="ihhCMKZN7UIY24i0vxse-95" edge="1">
          <mxGeometry relative="1" as="geometry" />
        </mxCell>
        <mxCell id="ihhCMKZN7UIY24i0vxse-102" value="View assigned data" style="whiteSpace=wrap;html=1;fillColor=none;strokeColor=#FF0000;rounded=0;" parent="1" vertex="1">
          <mxGeometry x="2920" y="360" width="120" height="40" as="geometry" />
        </mxCell>
        <mxCell id="ihhCMKZN7UIY24i0vxse-105" value="&lt;b&gt;&lt;font style=&quot;font-size: 20px;&quot;&gt;Site Supervisor&lt;/font&gt;&lt;/b&gt;" style="text;html=1;align=center;verticalAlign=middle;whiteSpace=wrap;rounded=0;fontColor=#FF0000;" parent="1" vertex="1">
          <mxGeometry x="2615" y="40" width="170" height="30" as="geometry" />
        </mxCell>
        <mxCell id="ihhCMKZN7UIY24i0vxse-107" value="&lt;b&gt;&lt;font style=&quot;font-size: 20px;&quot;&gt;Other Individuals (Staff)&lt;/font&gt;&lt;/b&gt;" style="text;html=1;align=center;verticalAlign=middle;whiteSpace=wrap;rounded=0;fontColor=#FF0000;" parent="1" vertex="1">
          <mxGeometry x="2852.5" y="40" width="255" height="30" as="geometry" />
        </mxCell>
        <mxCell id="ihhCMKZN7UIY24i0vxse-108" value="&lt;b&gt;&lt;font&gt;🤵Role Based Access Matrix&lt;/font&gt;&lt;/b&gt;" style="text;html=1;align=left;verticalAlign=middle;whiteSpace=wrap;rounded=0;fontColor=#007FFF;fontSize=24;" parent="1" vertex="1">
          <mxGeometry x="40" y="522.5" width="400" height="37.5" as="geometry" />
        </mxCell>
        <mxCell id="ihhCMKZN7UIY24i0vxse-172" value="" style="edgeStyle=orthogonalEdgeStyle;rounded=0;orthogonalLoop=1;jettySize=auto;html=1;" parent="1" source="ihhCMKZN7UIY24i0vxse-170" target="ihhCMKZN7UIY24i0vxse-171" edge="1">
          <mxGeometry relative="1" as="geometry" />
        </mxCell>
        <mxCell id="ihhCMKZN7UIY24i0vxse-176" value="" style="edgeStyle=orthogonalEdgeStyle;rounded=0;orthogonalLoop=1;jettySize=auto;html=1;" parent="1" source="ihhCMKZN7UIY24i0vxse-170" target="ihhCMKZN7UIY24i0vxse-175" edge="1">
          <mxGeometry relative="1" as="geometry" />
        </mxCell>
        <mxCell id="ihhCMKZN7UIY24i0vxse-170" value="Module/Feature" style="rounded=0;whiteSpace=wrap;html=1;fillColor=none;" parent="1" vertex="1">
          <mxGeometry x="81" y="600" width="120" height="40" as="geometry" />
        </mxCell>
        <mxCell id="ihhCMKZN7UIY24i0vxse-174" value="" style="edgeStyle=orthogonalEdgeStyle;rounded=0;orthogonalLoop=1;jettySize=auto;html=1;" parent="1" source="ihhCMKZN7UIY24i0vxse-171" target="ihhCMKZN7UIY24i0vxse-173" edge="1">
          <mxGeometry relative="1" as="geometry" />
        </mxCell>
        <mxCell id="ihhCMKZN7UIY24i0vxse-171" value="Login/Auth" style="rounded=0;whiteSpace=wrap;html=1;fillColor=none;" parent="1" vertex="1">
          <mxGeometry x="81" y="680" width="120" height="40" as="geometry" />
        </mxCell>
        <mxCell id="ihhCMKZN7UIY24i0vxse-173" value="Dashboard View" style="rounded=0;whiteSpace=wrap;html=1;fillColor=none;" parent="1" vertex="1">
          <mxGeometry x="81" y="760" width="120" height="40" as="geometry" />
        </mxCell>
        <mxCell id="ihhCMKZN7UIY24i0vxse-182" value="" style="edgeStyle=orthogonalEdgeStyle;rounded=0;orthogonalLoop=1;jettySize=auto;html=1;" parent="1" source="ihhCMKZN7UIY24i0vxse-175" target="ihhCMKZN7UIY24i0vxse-181" edge="1">
          <mxGeometry relative="1" as="geometry" />
        </mxCell>
        <mxCell id="ihhCMKZN7UIY24i0vxse-185" value="" style="edgeStyle=orthogonalEdgeStyle;rounded=0;orthogonalLoop=1;jettySize=auto;html=1;" parent="1" source="ihhCMKZN7UIY24i0vxse-175" target="ihhCMKZN7UIY24i0vxse-184" edge="1">
          <mxGeometry relative="1" as="geometry" />
        </mxCell>
        <mxCell id="ihhCMKZN7UIY24i0vxse-175" value="&lt;font style=&quot;color: rgb(0, 127, 255); font-size: 15px;&quot;&gt;MD&lt;/font&gt;" style="rounded=0;whiteSpace=wrap;html=1;fillColor=none;strokeColor=#007FFF;fontStyle=1" parent="1" vertex="1">
          <mxGeometry x="241" y="600" width="120" height="40" as="geometry" />
        </mxCell>
        <mxCell id="ihhCMKZN7UIY24i0vxse-193" value="" style="edgeStyle=orthogonalEdgeStyle;rounded=0;orthogonalLoop=1;jettySize=auto;html=1;" parent="1" source="ihhCMKZN7UIY24i0vxse-177" target="ihhCMKZN7UIY24i0vxse-192" edge="1">
          <mxGeometry relative="1" as="geometry" />
        </mxCell>
        <mxCell id="ihhCMKZN7UIY24i0vxse-202" style="edgeStyle=orthogonalEdgeStyle;rounded=0;orthogonalLoop=1;jettySize=auto;html=1;entryX=0;entryY=0.5;entryDx=0;entryDy=0;" parent="1" source="ihhCMKZN7UIY24i0vxse-177" target="ihhCMKZN7UIY24i0vxse-179" edge="1">
          <mxGeometry relative="1" as="geometry" />
        </mxCell>
        <mxCell id="ihhCMKZN7UIY24i0vxse-177" value="&lt;font style=&quot;color: rgb(255, 0, 0); font-size: 15px;&quot;&gt;Site Supervisor&lt;/font&gt;" style="rounded=0;whiteSpace=wrap;html=1;fillColor=none;strokeColor=#FF0000;fontStyle=1" parent="1" vertex="1">
          <mxGeometry x="561" y="600" width="160" height="40" as="geometry" />
        </mxCell>
        <mxCell id="ihhCMKZN7UIY24i0vxse-203" style="edgeStyle=orthogonalEdgeStyle;rounded=0;orthogonalLoop=1;jettySize=auto;html=1;entryX=0.5;entryY=0;entryDx=0;entryDy=0;" parent="1" source="ihhCMKZN7UIY24i0vxse-179" target="ihhCMKZN7UIY24i0vxse-196" edge="1">
          <mxGeometry relative="1" as="geometry" />
        </mxCell>
        <mxCell id="ihhCMKZN7UIY24i0vxse-179" value="&lt;font style=&quot;color: rgb(255, 0, 0); font-size: 15px;&quot;&gt;Other Individuals&lt;/font&gt;" style="rounded=0;whiteSpace=wrap;html=1;fillColor=none;strokeColor=#FF0000;fontStyle=1" parent="1" vertex="1">
          <mxGeometry x="760" y="600" width="160" height="40" as="geometry" />
        </mxCell>
        <mxCell id="ihhCMKZN7UIY24i0vxse-183" style="edgeStyle=orthogonalEdgeStyle;rounded=0;orthogonalLoop=1;jettySize=auto;html=1;entryX=0;entryY=0.5;entryDx=0;entryDy=0;" parent="1" source="ihhCMKZN7UIY24i0vxse-181" target="ihhCMKZN7UIY24i0vxse-177" edge="1">
          <mxGeometry relative="1" as="geometry" />
        </mxCell>
        <mxCell id="ihhCMKZN7UIY24i0vxse-189" value="" style="edgeStyle=orthogonalEdgeStyle;rounded=0;orthogonalLoop=1;jettySize=auto;html=1;" parent="1" source="ihhCMKZN7UIY24i0vxse-181" target="ihhCMKZN7UIY24i0vxse-188" edge="1">
          <mxGeometry relative="1" as="geometry" />
        </mxCell>
        <mxCell id="ihhCMKZN7UIY24i0vxse-181" value="&lt;font style=&quot;font-size: 15px; color: rgb(0, 153, 0);&quot;&gt;Accountant&lt;/font&gt;" style="rounded=0;whiteSpace=wrap;html=1;fillColor=none;strokeColor=#009900;fontStyle=1" parent="1" vertex="1">
          <mxGeometry x="401" y="600" width="120" height="40" as="geometry" />
        </mxCell>
        <mxCell id="ihhCMKZN7UIY24i0vxse-187" value="" style="edgeStyle=orthogonalEdgeStyle;rounded=0;orthogonalLoop=1;jettySize=auto;html=1;" parent="1" source="ihhCMKZN7UIY24i0vxse-184" target="ihhCMKZN7UIY24i0vxse-186" edge="1">
          <mxGeometry relative="1" as="geometry" />
        </mxCell>
        <mxCell id="ihhCMKZN7UIY24i0vxse-184" value="&lt;font style=&quot;color: rgb(0, 127, 255); font-size: 15px; font-weight: normal;&quot;&gt;Full Access&lt;/font&gt;" style="rounded=0;whiteSpace=wrap;html=1;fillColor=none;strokeColor=#007FFF;fontStyle=1" parent="1" vertex="1">
          <mxGeometry x="241" y="680" width="120" height="40" as="geometry" />
        </mxCell>
        <mxCell id="ihhCMKZN7UIY24i0vxse-186" value="&lt;font style=&quot;color: rgb(0, 127, 255); font-size: 15px; font-weight: normal;&quot;&gt;MD Dashboard&lt;/font&gt;" style="rounded=0;whiteSpace=wrap;html=1;fillColor=none;strokeColor=#007FFF;fontStyle=1" parent="1" vertex="1">
          <mxGeometry x="241" y="760" width="120" height="40" as="geometry" />
        </mxCell>
        <mxCell id="ihhCMKZN7UIY24i0vxse-191" value="" style="edgeStyle=orthogonalEdgeStyle;rounded=0;orthogonalLoop=1;jettySize=auto;html=1;" parent="1" source="ihhCMKZN7UIY24i0vxse-188" target="ihhCMKZN7UIY24i0vxse-190" edge="1">
          <mxGeometry relative="1" as="geometry" />
        </mxCell>
        <mxCell id="ihhCMKZN7UIY24i0vxse-188" value="&lt;font style=&quot;font-size: 15px; color: rgb(0, 153, 0); font-weight: normal;&quot;&gt;Own Account&lt;/font&gt;" style="rounded=0;whiteSpace=wrap;html=1;fillColor=none;strokeColor=#009900;fontStyle=1" parent="1" vertex="1">
          <mxGeometry x="401" y="680" width="120" height="40" as="geometry" />
        </mxCell>
        <mxCell id="ihhCMKZN7UIY24i0vxse-190" value="&lt;font style=&quot;font-size: 15px; color: rgb(0, 153, 0); font-weight: normal;&quot;&gt;Accountant&amp;nbsp;&lt;/font&gt;&lt;div&gt;&lt;font color=&quot;#009900&quot;&gt;&lt;span style=&quot;font-size: 15px; font-weight: 400;&quot;&gt;Dashboard&lt;/span&gt;&lt;/font&gt;&lt;/div&gt;" style="rounded=0;whiteSpace=wrap;html=1;fillColor=none;strokeColor=#009900;fontStyle=1" parent="1" vertex="1">
          <mxGeometry x="401" y="760" width="120" height="40" as="geometry" />
        </mxCell>
        <mxCell id="ihhCMKZN7UIY24i0vxse-195" value="" style="edgeStyle=orthogonalEdgeStyle;rounded=0;orthogonalLoop=1;jettySize=auto;html=1;" parent="1" source="ihhCMKZN7UIY24i0vxse-192" target="ihhCMKZN7UIY24i0vxse-194" edge="1">
          <mxGeometry relative="1" as="geometry" />
        </mxCell>
        <mxCell id="ihhCMKZN7UIY24i0vxse-192" value="&lt;font style=&quot;color: rgb(255, 0, 0); font-size: 15px; font-weight: normal;&quot;&gt;Own Account&lt;/font&gt;" style="rounded=0;whiteSpace=wrap;html=1;fillColor=none;strokeColor=#FF0000;fontStyle=1" parent="1" vertex="1">
          <mxGeometry x="561" y="680" width="160" height="40" as="geometry" />
        </mxCell>
        <mxCell id="ihhCMKZN7UIY24i0vxse-194" value="&lt;font style=&quot;color: rgb(255, 0, 0); font-size: 15px; font-weight: normal;&quot;&gt;Site Sup. Dashboard&lt;/font&gt;" style="rounded=0;whiteSpace=wrap;html=1;fillColor=none;strokeColor=#FF0000;fontStyle=1" parent="1" vertex="1">
          <mxGeometry x="561" y="760" width="160" height="40" as="geometry" />
        </mxCell>
        <mxCell id="ihhCMKZN7UIY24i0vxse-204" style="edgeStyle=orthogonalEdgeStyle;rounded=0;orthogonalLoop=1;jettySize=auto;html=1;entryX=0.5;entryY=0;entryDx=0;entryDy=0;" parent="1" source="ihhCMKZN7UIY24i0vxse-196" target="ihhCMKZN7UIY24i0vxse-199" edge="1">
          <mxGeometry relative="1" as="geometry" />
        </mxCell>
        <mxCell id="ihhCMKZN7UIY24i0vxse-196" value="&lt;font style=&quot;color: rgb(255, 0, 0); font-size: 15px; font-weight: normal;&quot;&gt;Own Account&lt;/font&gt;" style="rounded=0;whiteSpace=wrap;html=1;fillColor=none;strokeColor=#FF0000;fontStyle=1" parent="1" vertex="1">
          <mxGeometry x="760" y="680" width="160" height="40" as="geometry" />
        </mxCell>
        <mxCell id="ihhCMKZN7UIY24i0vxse-199" value="&lt;font style=&quot;color: rgb(255, 0, 0); font-size: 15px; font-weight: normal;&quot;&gt;Individual Dashboard&lt;/font&gt;" style="rounded=0;whiteSpace=wrap;html=1;fillColor=none;strokeColor=#FF0000;fontStyle=1" parent="1" vertex="1">
          <mxGeometry x="760" y="760" width="160" height="40" as="geometry" />
        </mxCell>
        <mxCell id="ihhCMKZN7UIY24i0vxse-205" value="" style="rounded=0;whiteSpace=wrap;html=1;fillColor=none;strokeWidth=2;" parent="1" vertex="1">
          <mxGeometry x="40" y="937.5" width="920" height="622.5" as="geometry" />
        </mxCell>
        <mxCell id="ihhCMKZN7UIY24i0vxse-206" value="&lt;b&gt;&lt;font&gt;📅Daily Activities&lt;/font&gt;&lt;/b&gt;" style="text;html=1;align=left;verticalAlign=middle;whiteSpace=wrap;rounded=0;fontColor=#007FFF;fontSize=24;" parent="1" vertex="1">
          <mxGeometry x="40" y="900" width="400" height="37.5" as="geometry" />
        </mxCell>
        <mxCell id="ihhCMKZN7UIY24i0vxse-207" value="" style="edgeStyle=orthogonalEdgeStyle;rounded=0;orthogonalLoop=1;jettySize=auto;html=1;" parent="1" source="ihhCMKZN7UIY24i0vxse-209" target="ihhCMKZN7UIY24i0vxse-211" edge="1">
          <mxGeometry relative="1" as="geometry" />
        </mxCell>
        <mxCell id="ihhCMKZN7UIY24i0vxse-208" value="" style="edgeStyle=orthogonalEdgeStyle;rounded=0;orthogonalLoop=1;jettySize=auto;html=1;" parent="1" source="ihhCMKZN7UIY24i0vxse-209" target="ihhCMKZN7UIY24i0vxse-215" edge="1">
          <mxGeometry relative="1" as="geometry" />
        </mxCell>
        <mxCell id="ihhCMKZN7UIY24i0vxse-209" value="Action" style="rounded=0;whiteSpace=wrap;html=1;fillColor=none;" parent="1" vertex="1">
          <mxGeometry x="81" y="977.5" width="120" height="40" as="geometry" />
        </mxCell>
        <mxCell id="ihhCMKZN7UIY24i0vxse-210" value="" style="edgeStyle=orthogonalEdgeStyle;rounded=0;orthogonalLoop=1;jettySize=auto;html=1;" parent="1" source="ihhCMKZN7UIY24i0vxse-211" target="ihhCMKZN7UIY24i0vxse-212" edge="1">
          <mxGeometry relative="1" as="geometry" />
        </mxCell>
        <mxCell id="ihhCMKZN7UIY24i0vxse-211" value="Office Investment Entry" style="rounded=0;whiteSpace=wrap;html=1;fillColor=none;" parent="1" vertex="1">
          <mxGeometry x="81" y="1057.5" width="120" height="40" as="geometry" />
        </mxCell>
        <mxCell id="ihhCMKZN7UIY24i0vxse-237" value="" style="edgeStyle=orthogonalEdgeStyle;rounded=0;orthogonalLoop=1;jettySize=auto;html=1;" parent="1" source="ihhCMKZN7UIY24i0vxse-212" target="ihhCMKZN7UIY24i0vxse-236" edge="1">
          <mxGeometry relative="1" as="geometry" />
        </mxCell>
        <mxCell id="ihhCMKZN7UIY24i0vxse-212" value="Office Daily&amp;nbsp;&lt;div&gt;Expenses&lt;/div&gt;" style="rounded=0;whiteSpace=wrap;html=1;fillColor=none;" parent="1" vertex="1">
          <mxGeometry x="81" y="1137.5" width="120" height="40" as="geometry" />
        </mxCell>
        <mxCell id="ihhCMKZN7UIY24i0vxse-213" value="" style="edgeStyle=orthogonalEdgeStyle;rounded=0;orthogonalLoop=1;jettySize=auto;html=1;" parent="1" source="ihhCMKZN7UIY24i0vxse-215" target="ihhCMKZN7UIY24i0vxse-223" edge="1">
          <mxGeometry relative="1" as="geometry" />
        </mxCell>
        <mxCell id="ihhCMKZN7UIY24i0vxse-214" value="" style="edgeStyle=orthogonalEdgeStyle;rounded=0;orthogonalLoop=1;jettySize=auto;html=1;" parent="1" source="ihhCMKZN7UIY24i0vxse-215" target="ihhCMKZN7UIY24i0vxse-225" edge="1">
          <mxGeometry relative="1" as="geometry" />
        </mxCell>
        <mxCell id="ihhCMKZN7UIY24i0vxse-215" value="&lt;font style=&quot;color: rgb(0, 127, 255); font-size: 15px;&quot;&gt;MD&lt;/font&gt;" style="rounded=0;whiteSpace=wrap;html=1;fillColor=none;strokeColor=#007FFF;fontStyle=1" parent="1" vertex="1">
          <mxGeometry x="241" y="977.5" width="120" height="40" as="geometry" />
        </mxCell>
        <mxCell id="ihhCMKZN7UIY24i0vxse-216" value="" style="edgeStyle=orthogonalEdgeStyle;rounded=0;orthogonalLoop=1;jettySize=auto;html=1;" parent="1" source="ihhCMKZN7UIY24i0vxse-218" target="ihhCMKZN7UIY24i0vxse-231" edge="1">
          <mxGeometry relative="1" as="geometry" />
        </mxCell>
        <mxCell id="ihhCMKZN7UIY24i0vxse-217" style="edgeStyle=orthogonalEdgeStyle;rounded=0;orthogonalLoop=1;jettySize=auto;html=1;entryX=0;entryY=0.5;entryDx=0;entryDy=0;" parent="1" source="ihhCMKZN7UIY24i0vxse-218" target="ihhCMKZN7UIY24i0vxse-220" edge="1">
          <mxGeometry relative="1" as="geometry" />
        </mxCell>
        <mxCell id="ihhCMKZN7UIY24i0vxse-218" value="&lt;font style=&quot;color: rgb(255, 0, 0); font-size: 15px;&quot;&gt;Site Supervisor&lt;/font&gt;" style="rounded=0;whiteSpace=wrap;html=1;fillColor=none;strokeColor=#FF0000;fontStyle=1" parent="1" vertex="1">
          <mxGeometry x="561" y="977.5" width="160" height="40" as="geometry" />
        </mxCell>
        <mxCell id="ihhCMKZN7UIY24i0vxse-219" style="edgeStyle=orthogonalEdgeStyle;rounded=0;orthogonalLoop=1;jettySize=auto;html=1;entryX=0.5;entryY=0;entryDx=0;entryDy=0;" parent="1" source="ihhCMKZN7UIY24i0vxse-220" target="ihhCMKZN7UIY24i0vxse-279" edge="1">
          <mxGeometry relative="1" as="geometry">
            <mxPoint x="840" y="1057.5" as="targetPoint" />
          </mxGeometry>
        </mxCell>
        <mxCell id="ihhCMKZN7UIY24i0vxse-220" value="&lt;font style=&quot;color: rgb(255, 0, 0); font-size: 15px;&quot;&gt;Other Individuals&lt;/font&gt;" style="rounded=0;whiteSpace=wrap;html=1;fillColor=none;strokeColor=#FF0000;fontStyle=1" parent="1" vertex="1">
          <mxGeometry x="760" y="977.5" width="160" height="40" as="geometry" />
        </mxCell>
        <mxCell id="ihhCMKZN7UIY24i0vxse-221" style="edgeStyle=orthogonalEdgeStyle;rounded=0;orthogonalLoop=1;jettySize=auto;html=1;entryX=0;entryY=0.5;entryDx=0;entryDy=0;" parent="1" source="ihhCMKZN7UIY24i0vxse-223" target="ihhCMKZN7UIY24i0vxse-218" edge="1">
          <mxGeometry relative="1" as="geometry" />
        </mxCell>
        <mxCell id="ihhCMKZN7UIY24i0vxse-222" value="" style="edgeStyle=orthogonalEdgeStyle;rounded=0;orthogonalLoop=1;jettySize=auto;html=1;" parent="1" source="ihhCMKZN7UIY24i0vxse-223" target="ihhCMKZN7UIY24i0vxse-228" edge="1">
          <mxGeometry relative="1" as="geometry" />
        </mxCell>
        <mxCell id="ihhCMKZN7UIY24i0vxse-223" value="&lt;font style=&quot;font-size: 15px; color: rgb(0, 153, 0);&quot;&gt;Accountant&lt;/font&gt;" style="rounded=0;whiteSpace=wrap;html=1;fillColor=none;strokeColor=#009900;fontStyle=1" parent="1" vertex="1">
          <mxGeometry x="401" y="977.5" width="120" height="40" as="geometry" />
        </mxCell>
        <mxCell id="ihhCMKZN7UIY24i0vxse-224" value="" style="edgeStyle=orthogonalEdgeStyle;rounded=0;orthogonalLoop=1;jettySize=auto;html=1;" parent="1" source="ihhCMKZN7UIY24i0vxse-225" target="ihhCMKZN7UIY24i0vxse-226" edge="1">
          <mxGeometry relative="1" as="geometry" />
        </mxCell>
        <mxCell id="ihhCMKZN7UIY24i0vxse-225" value="&lt;font style=&quot;color: rgb(0, 127, 255); font-size: 15px; font-weight: normal;&quot;&gt;✅&lt;/font&gt;" style="rounded=0;whiteSpace=wrap;html=1;fillColor=none;strokeColor=#007FFF;fontStyle=1" parent="1" vertex="1">
          <mxGeometry x="241" y="1057.5" width="120" height="40" as="geometry" />
        </mxCell>
        <mxCell id="ihhCMKZN7UIY24i0vxse-250" value="" style="edgeStyle=orthogonalEdgeStyle;rounded=0;orthogonalLoop=1;jettySize=auto;html=1;" parent="1" source="ihhCMKZN7UIY24i0vxse-226" target="ihhCMKZN7UIY24i0vxse-248" edge="1">
          <mxGeometry relative="1" as="geometry" />
        </mxCell>
        <mxCell id="ihhCMKZN7UIY24i0vxse-226" value="&lt;font style=&quot;color: rgb(0, 127, 255); font-size: 15px; font-weight: normal;&quot;&gt;✅ Edit/Delete&lt;/font&gt;" style="rounded=0;whiteSpace=wrap;html=1;fillColor=none;strokeColor=#007FFF;fontStyle=1" parent="1" vertex="1">
          <mxGeometry x="241" y="1137.5" width="120" height="40" as="geometry" />
        </mxCell>
        <mxCell id="ihhCMKZN7UIY24i0vxse-227" value="" style="edgeStyle=orthogonalEdgeStyle;rounded=0;orthogonalLoop=1;jettySize=auto;html=1;" parent="1" source="ihhCMKZN7UIY24i0vxse-228" target="ihhCMKZN7UIY24i0vxse-229" edge="1">
          <mxGeometry relative="1" as="geometry" />
        </mxCell>
        <mxCell id="ihhCMKZN7UIY24i0vxse-228" value="&lt;font style=&quot;font-size: 15px; color: rgb(0, 153, 0); font-weight: normal;&quot;&gt;View Only&lt;/font&gt;" style="rounded=0;whiteSpace=wrap;html=1;fillColor=none;strokeColor=#009900;fontStyle=1" parent="1" vertex="1">
          <mxGeometry x="401" y="1057.5" width="120" height="40" as="geometry" />
        </mxCell>
        <mxCell id="ihhCMKZN7UIY24i0vxse-260" value="" style="edgeStyle=orthogonalEdgeStyle;rounded=0;orthogonalLoop=1;jettySize=auto;html=1;" parent="1" source="ihhCMKZN7UIY24i0vxse-229" target="ihhCMKZN7UIY24i0vxse-259" edge="1">
          <mxGeometry relative="1" as="geometry" />
        </mxCell>
        <mxCell id="ihhCMKZN7UIY24i0vxse-229" value="&lt;span style=&quot;font-size: 15px; font-weight: 400;&quot;&gt;&lt;font style=&quot;color: rgb(0, 153, 0);&quot;&gt;✅ Add&lt;/font&gt;&lt;/span&gt;" style="rounded=0;whiteSpace=wrap;html=1;fillColor=none;strokeColor=#009900;fontStyle=1" parent="1" vertex="1">
          <mxGeometry x="401" y="1137.5" width="120" height="40" as="geometry" />
        </mxCell>
        <mxCell id="ihhCMKZN7UIY24i0vxse-230" value="" style="edgeStyle=orthogonalEdgeStyle;rounded=0;orthogonalLoop=1;jettySize=auto;html=1;" parent="1" source="ihhCMKZN7UIY24i0vxse-231" target="ihhCMKZN7UIY24i0vxse-232" edge="1">
          <mxGeometry relative="1" as="geometry" />
        </mxCell>
        <mxCell id="ihhCMKZN7UIY24i0vxse-231" value="&lt;span style=&quot;color: rgb(0, 127, 255); font-size: 15px; font-weight: 400;&quot;&gt;❌&lt;/span&gt;" style="rounded=0;whiteSpace=wrap;html=1;fillColor=none;strokeColor=#FF0000;fontStyle=1" parent="1" vertex="1">
          <mxGeometry x="561" y="1057.5" width="160" height="40" as="geometry" />
        </mxCell>
        <mxCell id="ihhCMKZN7UIY24i0vxse-270" value="" style="edgeStyle=orthogonalEdgeStyle;rounded=0;orthogonalLoop=1;jettySize=auto;html=1;" parent="1" source="ihhCMKZN7UIY24i0vxse-232" target="ihhCMKZN7UIY24i0vxse-269" edge="1">
          <mxGeometry relative="1" as="geometry" />
        </mxCell>
        <mxCell id="ihhCMKZN7UIY24i0vxse-232" value="&lt;span style=&quot;color: rgb(0, 127, 255); font-size: 15px; font-weight: 400;&quot;&gt;❌&lt;/span&gt;" style="rounded=0;whiteSpace=wrap;html=1;fillColor=none;strokeColor=#FF0000;fontStyle=1" parent="1" vertex="1">
          <mxGeometry x="561" y="1137.5" width="160" height="40" as="geometry" />
        </mxCell>
        <mxCell id="ihhCMKZN7UIY24i0vxse-233" style="edgeStyle=orthogonalEdgeStyle;rounded=0;orthogonalLoop=1;jettySize=auto;html=1;entryX=0.5;entryY=0;entryDx=0;entryDy=0;" parent="1" edge="1">
          <mxGeometry relative="1" as="geometry">
            <mxPoint x="840" y="1097.5" as="sourcePoint" />
          </mxGeometry>
        </mxCell>
        <mxCell id="ihhCMKZN7UIY24i0vxse-239" value="" style="edgeStyle=orthogonalEdgeStyle;rounded=0;orthogonalLoop=1;jettySize=auto;html=1;" parent="1" source="ihhCMKZN7UIY24i0vxse-236" target="ihhCMKZN7UIY24i0vxse-238" edge="1">
          <mxGeometry relative="1" as="geometry" />
        </mxCell>
        <mxCell id="ihhCMKZN7UIY24i0vxse-236" value="Site Income Entry" style="rounded=0;whiteSpace=wrap;html=1;fillColor=none;" parent="1" vertex="1">
          <mxGeometry x="81" y="1210" width="120" height="40" as="geometry" />
        </mxCell>
        <mxCell id="ihhCMKZN7UIY24i0vxse-241" value="" style="edgeStyle=orthogonalEdgeStyle;rounded=0;orthogonalLoop=1;jettySize=auto;html=1;" parent="1" source="ihhCMKZN7UIY24i0vxse-238" target="ihhCMKZN7UIY24i0vxse-240" edge="1">
          <mxGeometry relative="1" as="geometry" />
        </mxCell>
        <mxCell id="ihhCMKZN7UIY24i0vxse-238" value="Site Labour/Material&lt;div&gt;Expense Entry&lt;/div&gt;" style="rounded=0;whiteSpace=wrap;html=1;fillColor=none;" parent="1" vertex="1">
          <mxGeometry x="81" y="1280" width="120" height="40" as="geometry" />
        </mxCell>
        <mxCell id="ihhCMKZN7UIY24i0vxse-243" value="" style="edgeStyle=orthogonalEdgeStyle;rounded=0;orthogonalLoop=1;jettySize=auto;html=1;" parent="1" source="ihhCMKZN7UIY24i0vxse-240" target="ihhCMKZN7UIY24i0vxse-242" edge="1">
          <mxGeometry relative="1" as="geometry" />
        </mxCell>
        <mxCell id="ihhCMKZN7UIY24i0vxse-240" value="View Site&lt;div&gt;&amp;nbsp;Outstanding&lt;/div&gt;" style="rounded=0;whiteSpace=wrap;html=1;fillColor=none;" parent="1" vertex="1">
          <mxGeometry x="81" y="1350" width="120" height="40" as="geometry" />
        </mxCell>
        <mxCell id="ihhCMKZN7UIY24i0vxse-245" value="" style="edgeStyle=orthogonalEdgeStyle;rounded=0;orthogonalLoop=1;jettySize=auto;html=1;" parent="1" source="ihhCMKZN7UIY24i0vxse-242" target="ihhCMKZN7UIY24i0vxse-244" edge="1">
          <mxGeometry relative="1" as="geometry" />
        </mxCell>
        <mxCell id="ihhCMKZN7UIY24i0vxse-242" value="View CIH/Bank" style="rounded=0;whiteSpace=wrap;html=1;fillColor=none;" parent="1" vertex="1">
          <mxGeometry x="81" y="1420" width="120" height="40" as="geometry" />
        </mxCell>
        <mxCell id="ihhCMKZN7UIY24i0vxse-244" value="Cash Transfer&lt;div&gt;(Bank&amp;lt;=&amp;gt;Cash)&lt;/div&gt;" style="rounded=0;whiteSpace=wrap;html=1;fillColor=none;" parent="1" vertex="1">
          <mxGeometry x="81" y="1490" width="120" height="40" as="geometry" />
        </mxCell>
        <mxCell id="ihhCMKZN7UIY24i0vxse-252" value="" style="edgeStyle=orthogonalEdgeStyle;rounded=0;orthogonalLoop=1;jettySize=auto;html=1;" parent="1" source="ihhCMKZN7UIY24i0vxse-248" target="ihhCMKZN7UIY24i0vxse-251" edge="1">
          <mxGeometry relative="1" as="geometry" />
        </mxCell>
        <mxCell id="ihhCMKZN7UIY24i0vxse-248" value="&lt;font style=&quot;color: rgb(0, 127, 255); font-size: 15px; font-weight: normal;&quot;&gt;✅&lt;/font&gt;" style="rounded=0;whiteSpace=wrap;html=1;fillColor=none;strokeColor=#007FFF;fontStyle=1" parent="1" vertex="1">
          <mxGeometry x="241" y="1210" width="120" height="40" as="geometry" />
        </mxCell>
        <mxCell id="ihhCMKZN7UIY24i0vxse-254" style="edgeStyle=orthogonalEdgeStyle;rounded=0;orthogonalLoop=1;jettySize=auto;html=1;entryX=0.5;entryY=0;entryDx=0;entryDy=0;" parent="1" source="ihhCMKZN7UIY24i0vxse-251" target="ihhCMKZN7UIY24i0vxse-253" edge="1">
          <mxGeometry relative="1" as="geometry" />
        </mxCell>
        <mxCell id="ihhCMKZN7UIY24i0vxse-251" value="&lt;font style=&quot;color: rgb(0, 127, 255); font-size: 15px; font-weight: normal;&quot;&gt;✅ Edit/Delete&lt;/font&gt;" style="rounded=0;whiteSpace=wrap;html=1;fillColor=none;strokeColor=#007FFF;fontStyle=1" parent="1" vertex="1">
          <mxGeometry x="240" y="1280" width="120" height="40" as="geometry" />
        </mxCell>
        <mxCell id="ihhCMKZN7UIY24i0vxse-256" value="" style="edgeStyle=orthogonalEdgeStyle;rounded=0;orthogonalLoop=1;jettySize=auto;html=1;" parent="1" source="ihhCMKZN7UIY24i0vxse-253" target="ihhCMKZN7UIY24i0vxse-255" edge="1">
          <mxGeometry relative="1" as="geometry" />
        </mxCell>
        <mxCell id="ihhCMKZN7UIY24i0vxse-253" value="&lt;font style=&quot;color: rgb(0, 127, 255); font-size: 15px; font-weight: normal;&quot;&gt;✅&lt;/font&gt;" style="rounded=0;whiteSpace=wrap;html=1;fillColor=none;strokeColor=#007FFF;fontStyle=1" parent="1" vertex="1">
          <mxGeometry x="240" y="1350" width="120" height="40" as="geometry" />
        </mxCell>
        <mxCell id="ihhCMKZN7UIY24i0vxse-258" value="" style="edgeStyle=orthogonalEdgeStyle;rounded=0;orthogonalLoop=1;jettySize=auto;html=1;" parent="1" source="ihhCMKZN7UIY24i0vxse-255" target="ihhCMKZN7UIY24i0vxse-257" edge="1">
          <mxGeometry relative="1" as="geometry" />
        </mxCell>
        <mxCell id="ihhCMKZN7UIY24i0vxse-255" value="&lt;font style=&quot;color: rgb(0, 127, 255); font-size: 15px; font-weight: normal;&quot;&gt;✅&lt;/font&gt;" style="rounded=0;whiteSpace=wrap;html=1;fillColor=none;strokeColor=#007FFF;fontStyle=1" parent="1" vertex="1">
          <mxGeometry x="240" y="1420" width="120" height="40" as="geometry" />
        </mxCell>
        <mxCell id="ihhCMKZN7UIY24i0vxse-257" value="&lt;font style=&quot;color: rgb(0, 127, 255); font-size: 15px; font-weight: normal;&quot;&gt;✅&lt;/font&gt;" style="rounded=0;whiteSpace=wrap;html=1;fillColor=none;strokeColor=#007FFF;fontStyle=1" parent="1" vertex="1">
          <mxGeometry x="240" y="1490" width="120" height="40" as="geometry" />
        </mxCell>
        <mxCell id="ihhCMKZN7UIY24i0vxse-262" style="edgeStyle=orthogonalEdgeStyle;rounded=0;orthogonalLoop=1;jettySize=auto;html=1;entryX=0.5;entryY=0;entryDx=0;entryDy=0;" parent="1" source="ihhCMKZN7UIY24i0vxse-259" target="ihhCMKZN7UIY24i0vxse-261" edge="1">
          <mxGeometry relative="1" as="geometry" />
        </mxCell>
        <mxCell id="ihhCMKZN7UIY24i0vxse-259" value="&lt;span style=&quot;color: rgb(0, 127, 255); font-size: 15px; font-weight: 400;&quot;&gt;❌&lt;/span&gt;" style="rounded=0;whiteSpace=wrap;html=1;fillColor=none;strokeColor=#009900;fontStyle=1" parent="1" vertex="1">
          <mxGeometry x="401" y="1210" width="120" height="40" as="geometry" />
        </mxCell>
        <mxCell id="ihhCMKZN7UIY24i0vxse-264" value="" style="edgeStyle=orthogonalEdgeStyle;rounded=0;orthogonalLoop=1;jettySize=auto;html=1;" parent="1" source="ihhCMKZN7UIY24i0vxse-261" target="ihhCMKZN7UIY24i0vxse-263" edge="1">
          <mxGeometry relative="1" as="geometry" />
        </mxCell>
        <mxCell id="ihhCMKZN7UIY24i0vxse-261" value="&lt;span style=&quot;font-size: 15px; font-weight: 400;&quot;&gt;&lt;font style=&quot;color: rgb(0, 153, 0);&quot;&gt;✅ Add&lt;/font&gt;&lt;/span&gt;" style="rounded=0;whiteSpace=wrap;html=1;fillColor=none;strokeColor=#009900;fontStyle=1" parent="1" vertex="1">
          <mxGeometry x="401" y="1280" width="120" height="40" as="geometry" />
        </mxCell>
        <mxCell id="ihhCMKZN7UIY24i0vxse-266" value="" style="edgeStyle=orthogonalEdgeStyle;rounded=0;orthogonalLoop=1;jettySize=auto;html=1;" parent="1" source="ihhCMKZN7UIY24i0vxse-263" target="ihhCMKZN7UIY24i0vxse-265" edge="1">
          <mxGeometry relative="1" as="geometry" />
        </mxCell>
        <mxCell id="ihhCMKZN7UIY24i0vxse-263" value="&lt;span style=&quot;color: rgb(0, 127, 255); font-size: 15px; font-weight: 400;&quot;&gt;✅&lt;/span&gt;" style="rounded=0;whiteSpace=wrap;html=1;fillColor=none;strokeColor=#009900;fontStyle=1" parent="1" vertex="1">
          <mxGeometry x="401" y="1350" width="120" height="40" as="geometry" />
        </mxCell>
        <mxCell id="ihhCMKZN7UIY24i0vxse-268" value="" style="edgeStyle=orthogonalEdgeStyle;rounded=0;orthogonalLoop=1;jettySize=auto;html=1;" parent="1" source="ihhCMKZN7UIY24i0vxse-265" target="ihhCMKZN7UIY24i0vxse-267" edge="1">
          <mxGeometry relative="1" as="geometry" />
        </mxCell>
        <mxCell id="ihhCMKZN7UIY24i0vxse-265" value="&lt;span style=&quot;color: rgb(0, 127, 255); font-size: 15px; font-weight: 400;&quot;&gt;✅&lt;/span&gt;" style="rounded=0;whiteSpace=wrap;html=1;fillColor=none;strokeColor=#009900;fontStyle=1" parent="1" vertex="1">
          <mxGeometry x="400" y="1420" width="120" height="40" as="geometry" />
        </mxCell>
        <mxCell id="ihhCMKZN7UIY24i0vxse-267" value="&lt;span style=&quot;color: rgb(0, 127, 255); font-size: 15px; font-weight: 400;&quot;&gt;✅&lt;/span&gt;" style="rounded=0;whiteSpace=wrap;html=1;fillColor=none;strokeColor=#009900;fontStyle=1" parent="1" vertex="1">
          <mxGeometry x="400" y="1490" width="120" height="40" as="geometry" />
        </mxCell>
        <mxCell id="ihhCMKZN7UIY24i0vxse-272" value="" style="edgeStyle=orthogonalEdgeStyle;rounded=0;orthogonalLoop=1;jettySize=auto;html=1;" parent="1" source="ihhCMKZN7UIY24i0vxse-269" target="ihhCMKZN7UIY24i0vxse-271" edge="1">
          <mxGeometry relative="1" as="geometry" />
        </mxCell>
        <mxCell id="ihhCMKZN7UIY24i0vxse-269" value="&lt;span style=&quot;color: rgb(0, 127, 255); font-size: 15px; font-weight: 400;&quot;&gt;❌&lt;/span&gt;" style="rounded=0;whiteSpace=wrap;html=1;fillColor=none;strokeColor=#FF0000;fontStyle=1" parent="1" vertex="1">
          <mxGeometry x="560" y="1210" width="160" height="40" as="geometry" />
        </mxCell>
        <mxCell id="ihhCMKZN7UIY24i0vxse-274" value="" style="edgeStyle=orthogonalEdgeStyle;rounded=0;orthogonalLoop=1;jettySize=auto;html=1;" parent="1" source="ihhCMKZN7UIY24i0vxse-271" target="ihhCMKZN7UIY24i0vxse-273" edge="1">
          <mxGeometry relative="1" as="geometry" />
        </mxCell>
        <mxCell id="ihhCMKZN7UIY24i0vxse-271" value="&lt;span style=&quot;font-size: 15px; font-weight: 400;&quot;&gt;&lt;font style=&quot;color: rgb(255, 0, 0);&quot;&gt;✅ Add&lt;/font&gt;&lt;/span&gt;" style="rounded=0;whiteSpace=wrap;html=1;fillColor=none;strokeColor=#FF0000;fontStyle=1" parent="1" vertex="1">
          <mxGeometry x="561" y="1280" width="160" height="40" as="geometry" />
        </mxCell>
        <mxCell id="ihhCMKZN7UIY24i0vxse-276" value="" style="edgeStyle=orthogonalEdgeStyle;rounded=0;orthogonalLoop=1;jettySize=auto;html=1;" parent="1" source="ihhCMKZN7UIY24i0vxse-273" target="ihhCMKZN7UIY24i0vxse-275" edge="1">
          <mxGeometry relative="1" as="geometry" />
        </mxCell>
        <mxCell id="ihhCMKZN7UIY24i0vxse-273" value="&lt;span style=&quot;color: rgb(0, 127, 255); font-size: 15px; font-weight: 400;&quot;&gt;✅&lt;/span&gt;" style="rounded=0;whiteSpace=wrap;html=1;fillColor=none;strokeColor=#FF0000;fontStyle=1" parent="1" vertex="1">
          <mxGeometry x="561" y="1350" width="160" height="40" as="geometry" />
        </mxCell>
        <mxCell id="ihhCMKZN7UIY24i0vxse-278" value="" style="edgeStyle=orthogonalEdgeStyle;rounded=0;orthogonalLoop=1;jettySize=auto;html=1;" parent="1" source="ihhCMKZN7UIY24i0vxse-275" target="ihhCMKZN7UIY24i0vxse-277" edge="1">
          <mxGeometry relative="1" as="geometry" />
        </mxCell>
        <mxCell id="ihhCMKZN7UIY24i0vxse-275" value="&lt;span style=&quot;color: rgb(0, 127, 255); font-size: 15px; font-weight: 400;&quot;&gt;✅&lt;/span&gt;" style="rounded=0;whiteSpace=wrap;html=1;fillColor=none;strokeColor=#FF0000;fontStyle=1" parent="1" vertex="1">
          <mxGeometry x="560" y="1420" width="160" height="40" as="geometry" />
        </mxCell>
        <mxCell id="ihhCMKZN7UIY24i0vxse-277" value="&lt;span style=&quot;font-size: 15px; font-weight: 400;&quot;&gt;&lt;font style=&quot;color: rgb(255, 0, 0);&quot;&gt;View Only&lt;/font&gt;&lt;/span&gt;" style="rounded=0;whiteSpace=wrap;html=1;fillColor=none;strokeColor=#FF0000;fontStyle=1" parent="1" vertex="1">
          <mxGeometry x="560" y="1490" width="160" height="40" as="geometry" />
        </mxCell>
        <mxCell id="ihhCMKZN7UIY24i0vxse-281" value="" style="edgeStyle=orthogonalEdgeStyle;rounded=0;orthogonalLoop=1;jettySize=auto;html=1;" parent="1" source="ihhCMKZN7UIY24i0vxse-279" target="ihhCMKZN7UIY24i0vxse-280" edge="1">
          <mxGeometry relative="1" as="geometry" />
        </mxCell>
        <mxCell id="ihhCMKZN7UIY24i0vxse-279" value="&lt;span style=&quot;color: rgb(0, 127, 255); font-size: 15px; font-weight: 400;&quot;&gt;❌&lt;/span&gt;" style="rounded=0;whiteSpace=wrap;html=1;fillColor=none;strokeColor=#FF0000;fontStyle=1" parent="1" vertex="1">
          <mxGeometry x="760" y="1057.5" width="160" height="40" as="geometry" />
        </mxCell>
        <mxCell id="ihhCMKZN7UIY24i0vxse-283" value="" style="edgeStyle=orthogonalEdgeStyle;rounded=0;orthogonalLoop=1;jettySize=auto;html=1;" parent="1" source="ihhCMKZN7UIY24i0vxse-280" target="ihhCMKZN7UIY24i0vxse-282" edge="1">
          <mxGeometry relative="1" as="geometry" />
        </mxCell>
        <mxCell id="ihhCMKZN7UIY24i0vxse-280" value="&lt;span style=&quot;color: rgb(0, 127, 255); font-size: 15px; font-weight: 400;&quot;&gt;❌&lt;/span&gt;" style="rounded=0;whiteSpace=wrap;html=1;fillColor=none;strokeColor=#FF0000;fontStyle=1" parent="1" vertex="1">
          <mxGeometry x="760" y="1210" width="160" height="40" as="geometry" />
        </mxCell>
        <mxCell id="ihhCMKZN7UIY24i0vxse-285" value="" style="edgeStyle=orthogonalEdgeStyle;rounded=0;orthogonalLoop=1;jettySize=auto;html=1;" parent="1" source="ihhCMKZN7UIY24i0vxse-282" target="ihhCMKZN7UIY24i0vxse-284" edge="1">
          <mxGeometry relative="1" as="geometry" />
        </mxCell>
        <mxCell id="ihhCMKZN7UIY24i0vxse-282" value="&lt;span style=&quot;color: rgb(0, 127, 255); font-size: 15px; font-weight: 400;&quot;&gt;❌&lt;/span&gt;" style="rounded=0;whiteSpace=wrap;html=1;fillColor=none;strokeColor=#FF0000;fontStyle=1" parent="1" vertex="1">
          <mxGeometry x="760" y="1350" width="160" height="40" as="geometry" />
        </mxCell>
        <mxCell id="ihhCMKZN7UIY24i0vxse-287" value="" style="edgeStyle=orthogonalEdgeStyle;rounded=0;orthogonalLoop=1;jettySize=auto;html=1;" parent="1" source="ihhCMKZN7UIY24i0vxse-284" target="ihhCMKZN7UIY24i0vxse-286" edge="1">
          <mxGeometry relative="1" as="geometry" />
        </mxCell>
        <mxCell id="ihhCMKZN7UIY24i0vxse-284" value="&lt;span style=&quot;color: rgb(0, 127, 255); font-size: 15px; font-weight: 400;&quot;&gt;❌&lt;/span&gt;" style="rounded=0;whiteSpace=wrap;html=1;fillColor=none;strokeColor=#FF0000;fontStyle=1" parent="1" vertex="1">
          <mxGeometry x="760" y="1420" width="160" height="40" as="geometry" />
        </mxCell>
        <mxCell id="ihhCMKZN7UIY24i0vxse-286" value="&lt;span style=&quot;color: rgb(0, 127, 255); font-size: 15px; font-weight: 400;&quot;&gt;❌&lt;/span&gt;" style="rounded=0;whiteSpace=wrap;html=1;fillColor=none;strokeColor=#FF0000;fontStyle=1" parent="1" vertex="1">
          <mxGeometry x="760" y="1490" width="160" height="40" as="geometry" />
        </mxCell>
        <mxCell id="ihhCMKZN7UIY24i0vxse-720" value="" style="edgeStyle=orthogonalEdgeStyle;rounded=0;orthogonalLoop=1;jettySize=auto;html=1;entryX=0;entryY=0.5;entryDx=0;entryDy=0;" parent="1" source="ihhCMKZN7UIY24i0vxse-715" target="ihhCMKZN7UIY24i0vxse-721" edge="1">
          <mxGeometry relative="1" as="geometry">
            <mxPoint x="3470" y="135" as="targetPoint" />
          </mxGeometry>
        </mxCell>
        <mxCell id="ihhCMKZN7UIY24i0vxse-715" value="Client&amp;nbsp;&lt;div&gt;(React)&lt;/div&gt;" style="shape=module;align=left;spacingLeft=20;align=center;verticalAlign=top;whiteSpace=wrap;html=1;" parent="1" vertex="1">
          <mxGeometry x="3280" y="110" width="100" height="50" as="geometry" />
        </mxCell>
        <mxCell id="ihhCMKZN7UIY24i0vxse-716" value="&lt;b&gt;&lt;font style=&quot;font-size: 23px; color: rgb(0, 127, 255);&quot;&gt;Text&lt;/font&gt;&lt;/b&gt;" style="text;html=1;align=left;verticalAlign=middle;whiteSpace=wrap;rounded=0;" parent="1" vertex="1">
          <mxGeometry x="3280" y="47.5" width="60" height="30" as="geometry" />
        </mxCell>
        <mxCell id="ihhCMKZN7UIY24i0vxse-739" value="" style="edgeStyle=orthogonalEdgeStyle;rounded=0;orthogonalLoop=1;jettySize=auto;html=1;" parent="1" source="ihhCMKZN7UIY24i0vxse-721" target="ihhCMKZN7UIY24i0vxse-738" edge="1">
          <mxGeometry relative="1" as="geometry" />
        </mxCell>
        <mxCell id="ihhCMKZN7UIY24i0vxse-721" value="Auth Page" style="rhombus;whiteSpace=wrap;html=1;" parent="1" vertex="1">
          <mxGeometry x="3539" y="95" width="80" height="80" as="geometry" />
        </mxCell>
        <mxCell id="ihhCMKZN7UIY24i0vxse-808" style="edgeStyle=orthogonalEdgeStyle;rounded=0;orthogonalLoop=1;jettySize=auto;html=1;entryX=0.5;entryY=0;entryDx=0;entryDy=0;" parent="1" source="ihhCMKZN7UIY24i0vxse-722" target="ihhCMKZN7UIY24i0vxse-724" edge="1">
          <mxGeometry relative="1" as="geometry" />
        </mxCell>
        <mxCell id="ihhCMKZN7UIY24i0vxse-809" style="edgeStyle=orthogonalEdgeStyle;rounded=0;orthogonalLoop=1;jettySize=auto;html=1;entryX=0.5;entryY=0;entryDx=0;entryDy=0;" parent="1" source="ihhCMKZN7UIY24i0vxse-722" target="ihhCMKZN7UIY24i0vxse-726" edge="1">
          <mxGeometry relative="1" as="geometry" />
        </mxCell>
        <mxCell id="ihhCMKZN7UIY24i0vxse-810" style="edgeStyle=orthogonalEdgeStyle;rounded=0;orthogonalLoop=1;jettySize=auto;html=1;entryX=0.5;entryY=0;entryDx=0;entryDy=0;" parent="1" source="ihhCMKZN7UIY24i0vxse-722" target="ihhCMKZN7UIY24i0vxse-729" edge="1">
          <mxGeometry relative="1" as="geometry" />
        </mxCell>
        <mxCell id="ihhCMKZN7UIY24i0vxse-811" style="edgeStyle=orthogonalEdgeStyle;rounded=0;orthogonalLoop=1;jettySize=auto;html=1;entryX=0.5;entryY=0;entryDx=0;entryDy=0;" parent="1" source="ihhCMKZN7UIY24i0vxse-722" target="ihhCMKZN7UIY24i0vxse-732" edge="1">
          <mxGeometry relative="1" as="geometry" />
        </mxCell>
        <mxCell id="ihhCMKZN7UIY24i0vxse-722" value="Dashboard" style="ellipse;whiteSpace=wrap;html=1;" parent="1" vertex="1">
          <mxGeometry x="5230" y="160" width="80" height="80" as="geometry" />
        </mxCell>
        <mxCell id="ihhCMKZN7UIY24i0vxse-813" style="edgeStyle=orthogonalEdgeStyle;rounded=0;orthogonalLoop=1;jettySize=auto;html=1;entryX=0.5;entryY=0;entryDx=0;entryDy=0;" parent="1" source="ihhCMKZN7UIY24i0vxse-724" target="ihhCMKZN7UIY24i0vxse-734" edge="1">
          <mxGeometry relative="1" as="geometry" />
        </mxCell>
        <mxCell id="ihhCMKZN7UIY24i0vxse-724" value="&lt;font style=&quot;color: rgb(0, 127, 255);&quot;&gt;MD Dashboard&lt;/font&gt;" style="whiteSpace=wrap;html=1;fillColor=none;strokeColor=#007FFF;" parent="1" vertex="1">
          <mxGeometry x="4640" y="415" width="120" height="60" as="geometry" />
        </mxCell>
        <mxCell id="ihhCMKZN7UIY24i0vxse-726" value="&lt;font style=&quot;color: rgb(0, 153, 0);&quot;&gt;Accountant&lt;/font&gt;&lt;div&gt;&lt;font style=&quot;color: rgb(0, 153, 0);&quot;&gt;Dashboard&lt;/font&gt;&lt;/div&gt;" style="whiteSpace=wrap;html=1;fillColor=none;strokeColor=#009900;" parent="1" vertex="1">
          <mxGeometry x="5130" y="345" width="120" height="60" as="geometry" />
        </mxCell>
        <mxCell id="ihhCMKZN7UIY24i0vxse-729" value="&lt;font style=&quot;color: rgb(255, 0, 0);&quot;&gt;Site Supervisor&lt;/font&gt;&lt;div&gt;&lt;font style=&quot;color: rgb(255, 0, 0);&quot;&gt;Dashboard&lt;/font&gt;&lt;/div&gt;" style="whiteSpace=wrap;html=1;fillColor=none;strokeColor=#FF0000;" parent="1" vertex="1">
          <mxGeometry x="5270" y="345" width="120" height="60" as="geometry" />
        </mxCell>
        <mxCell id="ihhCMKZN7UIY24i0vxse-732" value="&lt;font color=&quot;#ff0000&quot;&gt;Other Individuals&lt;/font&gt;&lt;div&gt;&lt;font color=&quot;#ff0000&quot;&gt;Dashboard&lt;/font&gt;&lt;/div&gt;" style="whiteSpace=wrap;html=1;fillColor=none;strokeColor=#FF0000;" parent="1" vertex="1">
          <mxGeometry x="5410" y="345" width="120" height="60" as="geometry" />
        </mxCell>
        <mxCell id="ihhCMKZN7UIY24i0vxse-815" value="" style="edgeStyle=orthogonalEdgeStyle;rounded=0;orthogonalLoop=1;jettySize=auto;html=1;" parent="1" source="ihhCMKZN7UIY24i0vxse-734" target="ihhCMKZN7UIY24i0vxse-814" edge="1">
          <mxGeometry relative="1" as="geometry" />
        </mxCell>
        <mxCell id="ihhCMKZN7UIY24i0vxse-817" value="" style="edgeStyle=orthogonalEdgeStyle;rounded=0;orthogonalLoop=1;jettySize=auto;html=1;" parent="1" source="ihhCMKZN7UIY24i0vxse-734" target="ihhCMKZN7UIY24i0vxse-816" edge="1">
          <mxGeometry relative="1" as="geometry" />
        </mxCell>
        <mxCell id="ihhCMKZN7UIY24i0vxse-734" value="&lt;font color=&quot;#007fff&quot;&gt;Project&lt;/font&gt;" style="ellipse;whiteSpace=wrap;html=1;fillColor=none;strokeColor=#007FFF;" parent="1" vertex="1">
          <mxGeometry x="4660" y="522.5" width="80" height="80" as="geometry" />
        </mxCell>
        <mxCell id="ihhCMKZN7UIY24i0vxse-774" style="edgeStyle=orthogonalEdgeStyle;rounded=0;orthogonalLoop=1;jettySize=auto;html=1;entryX=0.438;entryY=1.067;entryDx=0;entryDy=0;entryPerimeter=0;exitX=1.001;exitY=0.615;exitDx=0;exitDy=0;exitPerimeter=0;" parent="1" source="ihhCMKZN7UIY24i0vxse-770" target="ihhCMKZN7UIY24i0vxse-743" edge="1">
          <mxGeometry relative="1" as="geometry" />
        </mxCell>
        <mxCell id="ihhCMKZN7UIY24i0vxse-776" value="" style="group" parent="1" vertex="1" connectable="0">
          <mxGeometry x="3278" y="480" width="420" height="470" as="geometry" />
        </mxCell>
        <mxCell id="ihhCMKZN7UIY24i0vxse-773" value="" style="group" parent="ihhCMKZN7UIY24i0vxse-776" vertex="1" connectable="0">
          <mxGeometry y="30" width="420" height="440" as="geometry" />
        </mxCell>
        <mxCell id="ihhCMKZN7UIY24i0vxse-770" value="" style="rounded=0;whiteSpace=wrap;html=1;fillColor=none;" parent="ihhCMKZN7UIY24i0vxse-773" vertex="1">
          <mxGeometry x="1" width="420" height="410" as="geometry" />
        </mxCell>
        <mxCell id="ihhCMKZN7UIY24i0vxse-756" value="Dashboard" style="ellipse;whiteSpace=wrap;html=1;" parent="ihhCMKZN7UIY24i0vxse-773" vertex="1">
          <mxGeometry x="40" y="40" width="80" height="80" as="geometry" />
        </mxCell>
        <mxCell id="ihhCMKZN7UIY24i0vxse-760" value="Accounting" style="ellipse;whiteSpace=wrap;html=1;" parent="ihhCMKZN7UIY24i0vxse-773" vertex="1">
          <mxGeometry x="160" y="40" width="80" height="80" as="geometry" />
        </mxCell>
        <mxCell id="ihhCMKZN7UIY24i0vxse-762" value="Users&lt;div&gt;Management&lt;/div&gt;" style="ellipse;whiteSpace=wrap;html=1;" parent="ihhCMKZN7UIY24i0vxse-773" vertex="1">
          <mxGeometry x="280" y="40" width="80" height="80" as="geometry" />
        </mxCell>
        <mxCell id="ihhCMKZN7UIY24i0vxse-764" value="Projects" style="ellipse;whiteSpace=wrap;html=1;" parent="ihhCMKZN7UIY24i0vxse-773" vertex="1">
          <mxGeometry x="40" y="162" width="80" height="80" as="geometry" />
        </mxCell>
        <mxCell id="ihhCMKZN7UIY24i0vxse-765" value="Reports" style="ellipse;whiteSpace=wrap;html=1;" parent="ihhCMKZN7UIY24i0vxse-773" vertex="1">
          <mxGeometry x="160" y="162" width="80" height="80" as="geometry" />
        </mxCell>
        <mxCell id="ihhCMKZN7UIY24i0vxse-766" value="Requirements" style="ellipse;whiteSpace=wrap;html=1;" parent="ihhCMKZN7UIY24i0vxse-773" vertex="1">
          <mxGeometry x="280" y="162" width="80" height="80" as="geometry" />
        </mxCell>
        <mxCell id="ihhCMKZN7UIY24i0vxse-767" value="Transactions" style="ellipse;whiteSpace=wrap;html=1;" parent="ihhCMKZN7UIY24i0vxse-773" vertex="1">
          <mxGeometry x="40" y="280" width="80" height="80" as="geometry" />
        </mxCell>
        <mxCell id="ihhCMKZN7UIY24i0vxse-768" value="Suppliers" style="ellipse;whiteSpace=wrap;html=1;" parent="ihhCMKZN7UIY24i0vxse-773" vertex="1">
          <mxGeometry x="160" y="280" width="80" height="80" as="geometry" />
        </mxCell>
        <mxCell id="ihhCMKZN7UIY24i0vxse-769" value="Budgets" style="ellipse;whiteSpace=wrap;html=1;" parent="ihhCMKZN7UIY24i0vxse-773" vertex="1">
          <mxGeometry x="280" y="280" width="80" height="80" as="geometry" />
        </mxCell>
        <mxCell id="ihhCMKZN7UIY24i0vxse-771" value="Add if any on futher features" style="text;html=1;align=left;verticalAlign=middle;whiteSpace=wrap;rounded=0;fontStyle=1" parent="ihhCMKZN7UIY24i0vxse-773" vertex="1">
          <mxGeometry x="193" y="381" width="180" height="30" as="geometry" />
        </mxCell>
        <mxCell id="ihhCMKZN7UIY24i0vxse-775" value="&lt;font style=&quot;color: rgb(0, 127, 255);&quot;&gt;Apps for MD&lt;/font&gt;" style="text;html=1;align=left;verticalAlign=middle;whiteSpace=wrap;rounded=0;fontStyle=1" parent="ihhCMKZN7UIY24i0vxse-776" vertex="1">
          <mxGeometry width="180" height="30" as="geometry" />
        </mxCell>
        <mxCell id="ihhCMKZN7UIY24i0vxse-777" value="" style="group" parent="1" vertex="1" connectable="0">
          <mxGeometry x="3279" y="937.5" width="420" height="470" as="geometry" />
        </mxCell>
        <mxCell id="ihhCMKZN7UIY24i0vxse-778" value="" style="group" parent="ihhCMKZN7UIY24i0vxse-777" vertex="1" connectable="0">
          <mxGeometry y="30" width="420" height="440" as="geometry" />
        </mxCell>
        <mxCell id="ihhCMKZN7UIY24i0vxse-779" value="" style="rounded=0;whiteSpace=wrap;html=1;fillColor=none;" parent="ihhCMKZN7UIY24i0vxse-778" vertex="1">
          <mxGeometry width="420" height="410" as="geometry" />
        </mxCell>
        <mxCell id="ihhCMKZN7UIY24i0vxse-780" value="Dashboard" style="ellipse;whiteSpace=wrap;html=1;" parent="ihhCMKZN7UIY24i0vxse-778" vertex="1">
          <mxGeometry x="40" y="40" width="80" height="80" as="geometry" />
        </mxCell>
        <mxCell id="ihhCMKZN7UIY24i0vxse-781" value="Accounting" style="ellipse;whiteSpace=wrap;html=1;" parent="ihhCMKZN7UIY24i0vxse-778" vertex="1">
          <mxGeometry x="160" y="40" width="80" height="80" as="geometry" />
        </mxCell>
        <mxCell id="ihhCMKZN7UIY24i0vxse-783" value="Projects" style="ellipse;whiteSpace=wrap;html=1;" parent="ihhCMKZN7UIY24i0vxse-778" vertex="1">
          <mxGeometry x="40" y="162" width="80" height="80" as="geometry" />
        </mxCell>
        <mxCell id="ihhCMKZN7UIY24i0vxse-784" value="Reports" style="ellipse;whiteSpace=wrap;html=1;" parent="ihhCMKZN7UIY24i0vxse-778" vertex="1">
          <mxGeometry x="160" y="162" width="80" height="80" as="geometry" />
        </mxCell>
        <mxCell id="ihhCMKZN7UIY24i0vxse-785" value="Requirements" style="ellipse;whiteSpace=wrap;html=1;" parent="ihhCMKZN7UIY24i0vxse-778" vertex="1">
          <mxGeometry x="280" y="40" width="80" height="80" as="geometry" />
        </mxCell>
        <mxCell id="ihhCMKZN7UIY24i0vxse-786" value="Transactions" style="ellipse;whiteSpace=wrap;html=1;" parent="ihhCMKZN7UIY24i0vxse-778" vertex="1">
          <mxGeometry x="40" y="280" width="80" height="80" as="geometry" />
        </mxCell>
        <mxCell id="ihhCMKZN7UIY24i0vxse-787" value="Suppliers" style="ellipse;whiteSpace=wrap;html=1;" parent="ihhCMKZN7UIY24i0vxse-778" vertex="1">
          <mxGeometry x="160" y="280" width="80" height="80" as="geometry" />
        </mxCell>
        <mxCell id="ihhCMKZN7UIY24i0vxse-788" value="Budgets" style="ellipse;whiteSpace=wrap;html=1;" parent="ihhCMKZN7UIY24i0vxse-778" vertex="1">
          <mxGeometry x="280" y="165" width="80" height="80" as="geometry" />
        </mxCell>
        <mxCell id="ihhCMKZN7UIY24i0vxse-789" value="Add if any on futher features" style="text;html=1;align=left;verticalAlign=middle;whiteSpace=wrap;rounded=0;fontStyle=1" parent="ihhCMKZN7UIY24i0vxse-778" vertex="1">
          <mxGeometry x="193" y="381" width="180" height="30" as="geometry" />
        </mxCell>
        <mxCell id="ihhCMKZN7UIY24i0vxse-790" value="&lt;font style=&quot;color: rgb(0, 153, 0);&quot;&gt;Apps for Accountant&lt;/font&gt;" style="text;html=1;align=left;verticalAlign=middle;whiteSpace=wrap;rounded=0;fontStyle=1" parent="ihhCMKZN7UIY24i0vxse-777" vertex="1">
          <mxGeometry width="180" height="30" as="geometry" />
        </mxCell>
        <mxCell id="ihhCMKZN7UIY24i0vxse-791" value="" style="group" parent="1" vertex="1" connectable="0">
          <mxGeometry x="3800" y="70" width="610" height="310" as="geometry" />
        </mxCell>
        <mxCell id="ihhCMKZN7UIY24i0vxse-754" value="" style="rounded=0;whiteSpace=wrap;html=1;fillColor=none;" parent="ihhCMKZN7UIY24i0vxse-791" vertex="1">
          <mxGeometry width="610" height="310" as="geometry" />
        </mxCell>
        <mxCell id="ihhCMKZN7UIY24i0vxse-747" style="edgeStyle=orthogonalEdgeStyle;rounded=0;orthogonalLoop=1;jettySize=auto;html=1;entryX=0.5;entryY=0;entryDx=0;entryDy=0;" parent="ihhCMKZN7UIY24i0vxse-791" source="ihhCMKZN7UIY24i0vxse-738" target="ihhCMKZN7UIY24i0vxse-743" edge="1">
          <mxGeometry relative="1" as="geometry" />
        </mxCell>
        <mxCell id="ihhCMKZN7UIY24i0vxse-751" style="edgeStyle=orthogonalEdgeStyle;rounded=0;orthogonalLoop=1;jettySize=auto;html=1;entryX=0.5;entryY=0;entryDx=0;entryDy=0;" parent="ihhCMKZN7UIY24i0vxse-791" source="ihhCMKZN7UIY24i0vxse-738" target="ihhCMKZN7UIY24i0vxse-744" edge="1">
          <mxGeometry relative="1" as="geometry" />
        </mxCell>
        <mxCell id="ihhCMKZN7UIY24i0vxse-752" style="edgeStyle=orthogonalEdgeStyle;rounded=0;orthogonalLoop=1;jettySize=auto;html=1;entryX=0.5;entryY=0;entryDx=0;entryDy=0;" parent="ihhCMKZN7UIY24i0vxse-791" source="ihhCMKZN7UIY24i0vxse-738" target="ihhCMKZN7UIY24i0vxse-745" edge="1">
          <mxGeometry relative="1" as="geometry" />
        </mxCell>
        <mxCell id="ihhCMKZN7UIY24i0vxse-753" style="edgeStyle=orthogonalEdgeStyle;rounded=0;orthogonalLoop=1;jettySize=auto;html=1;entryX=0.5;entryY=0;entryDx=0;entryDy=0;" parent="ihhCMKZN7UIY24i0vxse-791" source="ihhCMKZN7UIY24i0vxse-738" target="ihhCMKZN7UIY24i0vxse-746" edge="1">
          <mxGeometry relative="1" as="geometry" />
        </mxCell>
        <mxCell id="ihhCMKZN7UIY24i0vxse-738" value="Routes&lt;span style=&quot;background-color: transparent; color: light-dark(rgb(0, 0, 0), rgb(255, 255, 255));&quot;&gt;&amp;nbsp;&lt;/span&gt;" style="rhombus;whiteSpace=wrap;html=1;" parent="ihhCMKZN7UIY24i0vxse-791" vertex="1">
          <mxGeometry x="50" y="25" width="80" height="80" as="geometry" />
        </mxCell>
        <mxCell id="ihhCMKZN7UIY24i0vxse-743" value="&lt;font style=&quot;color: rgb(0, 127, 255);&quot;&gt;MD&lt;/font&gt;" style="whiteSpace=wrap;html=1;fillColor=none;strokeColor=#007FFF;" parent="ihhCMKZN7UIY24i0vxse-791" vertex="1">
          <mxGeometry x="30" y="210" width="120" height="60" as="geometry" />
        </mxCell>
        <mxCell id="ihhCMKZN7UIY24i0vxse-744" value="&lt;font style=&quot;color: rgb(0, 153, 0);&quot;&gt;Accountant&lt;/font&gt;" style="whiteSpace=wrap;html=1;fillColor=none;strokeColor=#009900;" parent="ihhCMKZN7UIY24i0vxse-791" vertex="1">
          <mxGeometry x="170" y="210" width="120" height="60" as="geometry" />
        </mxCell>
        <mxCell id="ihhCMKZN7UIY24i0vxse-745" value="&lt;font style=&quot;color: rgb(255, 0, 0);&quot;&gt;Site Supervisor&lt;/font&gt;" style="whiteSpace=wrap;html=1;fillColor=none;strokeColor=#FF0000;" parent="ihhCMKZN7UIY24i0vxse-791" vertex="1">
          <mxGeometry x="310" y="210" width="120" height="60" as="geometry" />
        </mxCell>
        <mxCell id="ihhCMKZN7UIY24i0vxse-746" value="&lt;font color=&quot;#ff0000&quot;&gt;Other Individuals&lt;/font&gt;" style="whiteSpace=wrap;html=1;fillColor=none;strokeColor=#FF0000;" parent="ihhCMKZN7UIY24i0vxse-791" vertex="1">
          <mxGeometry x="450" y="210" width="120" height="60" as="geometry" />
        </mxCell>
        <mxCell id="ihhCMKZN7UIY24i0vxse-755" value="Routes/Services of &lt;font style=&quot;color: rgb(0, 127, 255);&quot;&gt;USERS&lt;/font&gt;" style="text;html=1;align=left;verticalAlign=middle;whiteSpace=wrap;rounded=0;fontStyle=1" parent="ihhCMKZN7UIY24i0vxse-791" vertex="1">
          <mxGeometry x="360" y="20" width="180" height="30" as="geometry" />
        </mxCell>
        <mxCell id="ihhCMKZN7UIY24i0vxse-792" style="edgeStyle=orthogonalEdgeStyle;rounded=0;orthogonalLoop=1;jettySize=auto;html=1;" parent="1" source="ihhCMKZN7UIY24i0vxse-779" target="ihhCMKZN7UIY24i0vxse-744" edge="1">
          <mxGeometry relative="1" as="geometry" />
        </mxCell>
        <mxCell id="ihhCMKZN7UIY24i0vxse-793" value="" style="group" parent="1" vertex="1" connectable="0">
          <mxGeometry x="3278" y="1400" width="420" height="470" as="geometry" />
        </mxCell>
        <mxCell id="ihhCMKZN7UIY24i0vxse-794" value="" style="group" parent="ihhCMKZN7UIY24i0vxse-793" vertex="1" connectable="0">
          <mxGeometry y="30" width="420" height="440" as="geometry" />
        </mxCell>
        <mxCell id="ihhCMKZN7UIY24i0vxse-795" value="" style="rounded=0;whiteSpace=wrap;html=1;fillColor=none;" parent="ihhCMKZN7UIY24i0vxse-794" vertex="1">
          <mxGeometry width="420" height="290" as="geometry" />
        </mxCell>
        <mxCell id="ihhCMKZN7UIY24i0vxse-796" value="Dashboard" style="ellipse;whiteSpace=wrap;html=1;" parent="ihhCMKZN7UIY24i0vxse-794" vertex="1">
          <mxGeometry x="40" y="40" width="80" height="80" as="geometry" />
        </mxCell>
        <mxCell id="ihhCMKZN7UIY24i0vxse-797" value="Book&amp;nbsp;" style="ellipse;whiteSpace=wrap;html=1;" parent="ihhCMKZN7UIY24i0vxse-794" vertex="1">
          <mxGeometry x="160" y="40" width="80" height="80" as="geometry" />
        </mxCell>
        <mxCell id="ihhCMKZN7UIY24i0vxse-798" value="Projects" style="ellipse;whiteSpace=wrap;html=1;" parent="ihhCMKZN7UIY24i0vxse-794" vertex="1">
          <mxGeometry x="40" y="162" width="80" height="80" as="geometry" />
        </mxCell>
        <mxCell id="ihhCMKZN7UIY24i0vxse-799" value="Reports" style="ellipse;whiteSpace=wrap;html=1;" parent="ihhCMKZN7UIY24i0vxse-794" vertex="1">
          <mxGeometry x="160" y="162" width="80" height="80" as="geometry" />
        </mxCell>
        <mxCell id="ihhCMKZN7UIY24i0vxse-800" value="Requirements" style="ellipse;whiteSpace=wrap;html=1;" parent="ihhCMKZN7UIY24i0vxse-794" vertex="1">
          <mxGeometry x="280" y="40" width="80" height="80" as="geometry" />
        </mxCell>
        <mxCell id="ihhCMKZN7UIY24i0vxse-801" value="Transactions" style="ellipse;whiteSpace=wrap;html=1;" parent="ihhCMKZN7UIY24i0vxse-794" vertex="1">
          <mxGeometry x="280" y="170" width="80" height="80" as="geometry" />
        </mxCell>
        <mxCell id="ihhCMKZN7UIY24i0vxse-804" value="Add if any on futher features" style="text;html=1;align=left;verticalAlign=middle;whiteSpace=wrap;rounded=0;fontStyle=1" parent="ihhCMKZN7UIY24i0vxse-794" vertex="1">
          <mxGeometry x="193" y="260" width="180" height="30" as="geometry" />
        </mxCell>
        <mxCell id="ihhCMKZN7UIY24i0vxse-805" value="&lt;font style=&quot;color: rgb(0, 127, 255);&quot;&gt;Apps for Site Sup &amp;amp; Other Individuals&lt;/font&gt;" style="text;html=1;align=left;verticalAlign=middle;whiteSpace=wrap;rounded=0;fontStyle=1" parent="ihhCMKZN7UIY24i0vxse-793" vertex="1">
          <mxGeometry width="260" height="30" as="geometry" />
        </mxCell>
        <mxCell id="ihhCMKZN7UIY24i0vxse-806" style="edgeStyle=orthogonalEdgeStyle;rounded=0;orthogonalLoop=1;jettySize=auto;html=1;entryX=0.5;entryY=1;entryDx=0;entryDy=0;" parent="1" source="ihhCMKZN7UIY24i0vxse-795" target="ihhCMKZN7UIY24i0vxse-745" edge="1">
          <mxGeometry relative="1" as="geometry" />
        </mxCell>
        <mxCell id="ihhCMKZN7UIY24i0vxse-807" style="edgeStyle=orthogonalEdgeStyle;rounded=0;orthogonalLoop=1;jettySize=auto;html=1;entryX=0.5;entryY=1;entryDx=0;entryDy=0;" parent="1" source="ihhCMKZN7UIY24i0vxse-795" target="ihhCMKZN7UIY24i0vxse-746" edge="1">
          <mxGeometry relative="1" as="geometry" />
        </mxCell>
        <mxCell id="ihhCMKZN7UIY24i0vxse-814" value="Create/Edit Sites, labour Contracts, view timelines &amp;amp; costing" style="whiteSpace=wrap;html=1;fillColor=none;strokeColor=#007FFF;" parent="1" vertex="1">
          <mxGeometry x="4800" y="502.5" width="240" height="120" as="geometry" />
        </mxCell>
        <mxCell id="ihhCMKZN7UIY24i0vxse-821" style="edgeStyle=orthogonalEdgeStyle;rounded=0;orthogonalLoop=1;jettySize=auto;html=1;" parent="1" source="ihhCMKZN7UIY24i0vxse-816" target="ihhCMKZN7UIY24i0vxse-820" edge="1">
          <mxGeometry relative="1" as="geometry" />
        </mxCell>
        <mxCell id="ihhCMKZN7UIY24i0vxse-823" value="" style="edgeStyle=orthogonalEdgeStyle;rounded=0;orthogonalLoop=1;jettySize=auto;html=1;" parent="1" source="ihhCMKZN7UIY24i0vxse-816" target="ihhCMKZN7UIY24i0vxse-822" edge="1">
          <mxGeometry relative="1" as="geometry" />
        </mxCell>
        <mxCell id="ihhCMKZN7UIY24i0vxse-816" value="&lt;font color=&quot;#007fff&quot;&gt;User&lt;/font&gt;&lt;div&gt;&lt;font color=&quot;#007fff&quot;&gt;Manager&lt;/font&gt;&lt;/div&gt;" style="ellipse;whiteSpace=wrap;html=1;fillColor=none;strokeColor=#007FFF;" parent="1" vertex="1">
          <mxGeometry x="4660" y="702.5" width="80" height="80" as="geometry" />
        </mxCell>
        <mxCell id="ihhCMKZN7UIY24i0vxse-820" value="Create/Delete/Edit user and assign roles" style="whiteSpace=wrap;html=1;fillColor=none;strokeColor=#007FFF;" parent="1" vertex="1">
          <mxGeometry x="4800" y="682.5" width="240" height="120" as="geometry" />
        </mxCell>
        <mxCell id="ihhCMKZN7UIY24i0vxse-826" value="" style="edgeStyle=orthogonalEdgeStyle;rounded=0;orthogonalLoop=1;jettySize=auto;html=1;" parent="1" source="ihhCMKZN7UIY24i0vxse-822" target="ihhCMKZN7UIY24i0vxse-825" edge="1">
          <mxGeometry relative="1" as="geometry" />
        </mxCell>
        <mxCell id="ihhCMKZN7UIY24i0vxse-837" value="" style="edgeStyle=orthogonalEdgeStyle;rounded=0;orthogonalLoop=1;jettySize=auto;html=1;" parent="1" source="ihhCMKZN7UIY24i0vxse-822" target="ihhCMKZN7UIY24i0vxse-836" edge="1">
          <mxGeometry relative="1" as="geometry" />
        </mxCell>
        <mxCell id="ihhCMKZN7UIY24i0vxse-822" value="&lt;font color=&quot;#007fff&quot;&gt;Accounts&lt;/font&gt;" style="ellipse;whiteSpace=wrap;html=1;fillColor=none;strokeColor=#007FFF;" parent="1" vertex="1">
          <mxGeometry x="4660" y="882.5" width="80" height="80" as="geometry" />
        </mxCell>
        <mxCell id="ihhCMKZN7UIY24i0vxse-824" value="Add company bank details, create budgeting categories" style="whiteSpace=wrap;html=1;fillColor=none;strokeColor=#007FFF;" parent="1" vertex="1">
          <mxGeometry x="4800" y="1000" width="240" height="120" as="geometry" />
        </mxCell>
        <mxCell id="ihhCMKZN7UIY24i0vxse-827" style="edgeStyle=orthogonalEdgeStyle;rounded=0;orthogonalLoop=1;jettySize=auto;html=1;entryX=0.25;entryY=0;entryDx=0;entryDy=0;" parent="1" source="ihhCMKZN7UIY24i0vxse-825" target="ihhCMKZN7UIY24i0vxse-824" edge="1">
          <mxGeometry relative="1" as="geometry" />
        </mxCell>
        <mxCell id="ihhCMKZN7UIY24i0vxse-829" value="" style="edgeStyle=orthogonalEdgeStyle;rounded=0;orthogonalLoop=1;jettySize=auto;html=1;" parent="1" source="ihhCMKZN7UIY24i0vxse-825" target="ihhCMKZN7UIY24i0vxse-828" edge="1">
          <mxGeometry relative="1" as="geometry" />
        </mxCell>
        <mxCell id="ihhCMKZN7UIY24i0vxse-825" value="&lt;font color=&quot;#007fff&quot;&gt;Bank &amp;amp; Budget&lt;/font&gt;" style="ellipse;whiteSpace=wrap;html=1;fillColor=none;strokeColor=#007FFF;" parent="1" vertex="1">
          <mxGeometry x="4820" y="882.5" width="80" height="80" as="geometry" />
        </mxCell>
        <mxCell id="ihhCMKZN7UIY24i0vxse-831" style="edgeStyle=orthogonalEdgeStyle;rounded=0;orthogonalLoop=1;jettySize=auto;html=1;entryX=0.25;entryY=0;entryDx=0;entryDy=0;" parent="1" source="ihhCMKZN7UIY24i0vxse-828" target="ihhCMKZN7UIY24i0vxse-830" edge="1">
          <mxGeometry relative="1" as="geometry" />
        </mxCell>
        <mxCell id="ihhCMKZN7UIY24i0vxse-834" style="edgeStyle=orthogonalEdgeStyle;rounded=0;orthogonalLoop=1;jettySize=auto;html=1;" parent="1" source="ihhCMKZN7UIY24i0vxse-828" target="ihhCMKZN7UIY24i0vxse-832" edge="1">
          <mxGeometry relative="1" as="geometry" />
        </mxCell>
        <mxCell id="ihhCMKZN7UIY24i0vxse-828" value="&lt;font color=&quot;#007fff&quot;&gt;CIH &amp;amp; Transfers&lt;/font&gt;" style="ellipse;whiteSpace=wrap;html=1;fillColor=none;strokeColor=#007FFF;" parent="1" vertex="1">
          <mxGeometry x="5080" y="882.5" width="80" height="80" as="geometry" />
        </mxCell>
        <mxCell id="ihhCMKZN7UIY24i0vxse-830" value="View Cash in hands, perform bank&lt;div&gt;Bank &amp;lt;=&amp;gt; Cash transfers&lt;/div&gt;" style="whiteSpace=wrap;html=1;fillColor=none;strokeColor=#007FFF;" parent="1" vertex="1">
          <mxGeometry x="5060" y="1000" width="240" height="120" as="geometry" />
        </mxCell>
        <mxCell id="ihhCMKZN7UIY24i0vxse-835" style="edgeStyle=orthogonalEdgeStyle;rounded=0;orthogonalLoop=1;jettySize=auto;html=1;entryX=0.25;entryY=0;entryDx=0;entryDy=0;" parent="1" source="ihhCMKZN7UIY24i0vxse-832" target="ihhCMKZN7UIY24i0vxse-833" edge="1">
          <mxGeometry relative="1" as="geometry" />
        </mxCell>
        <mxCell id="ihhCMKZN7UIY24i0vxse-832" value="&lt;font color=&quot;#007fff&quot;&gt;Daily Accounts&lt;/font&gt;" style="ellipse;whiteSpace=wrap;html=1;fillColor=none;strokeColor=#007FFF;" parent="1" vertex="1">
          <mxGeometry x="5340" y="882.5" width="80" height="80" as="geometry" />
        </mxCell>
        <mxCell id="ihhCMKZN7UIY24i0vxse-833" value="Full view/edit of all daily A/C entries&amp;nbsp;&lt;div&gt;(Office + Site)&lt;/div&gt;" style="whiteSpace=wrap;html=1;fillColor=none;strokeColor=#007FFF;" parent="1" vertex="1">
          <mxGeometry x="5320" y="1000" width="240" height="120" as="geometry" />
        </mxCell>
        <mxCell id="ihhCMKZN7UIY24i0vxse-839" style="edgeStyle=orthogonalEdgeStyle;rounded=0;orthogonalLoop=1;jettySize=auto;html=1;entryX=0;entryY=0.5;entryDx=0;entryDy=0;" parent="1" source="ihhCMKZN7UIY24i0vxse-836" target="ihhCMKZN7UIY24i0vxse-838" edge="1">
          <mxGeometry relative="1" as="geometry" />
        </mxCell>
        <mxCell id="ihhCMKZN7UIY24i0vxse-841" value="" style="edgeStyle=orthogonalEdgeStyle;rounded=0;orthogonalLoop=1;jettySize=auto;html=1;" parent="1" source="ihhCMKZN7UIY24i0vxse-836" target="ihhCMKZN7UIY24i0vxse-840" edge="1">
          <mxGeometry relative="1" as="geometry" />
        </mxCell>
        <mxCell id="ihhCMKZN7UIY24i0vxse-836" value="&lt;font color=&quot;#007fff&quot;&gt;Requirements&lt;/font&gt;" style="ellipse;whiteSpace=wrap;html=1;fillColor=none;strokeColor=#007FFF;" parent="1" vertex="1">
          <mxGeometry x="4660" y="1190" width="80" height="80" as="geometry" />
        </mxCell>
        <mxCell id="ihhCMKZN7UIY24i0vxse-838" value="Approve/reject material/labbour requests" style="whiteSpace=wrap;html=1;fillColor=none;strokeColor=#007FFF;" parent="1" vertex="1">
          <mxGeometry x="4800" y="1170" width="240" height="120" as="geometry" />
        </mxCell>
        <mxCell id="ihhCMKZN7UIY24i0vxse-845" style="edgeStyle=orthogonalEdgeStyle;rounded=0;orthogonalLoop=1;jettySize=auto;html=1;" parent="1" source="ihhCMKZN7UIY24i0vxse-840" target="ihhCMKZN7UIY24i0vxse-844" edge="1">
          <mxGeometry relative="1" as="geometry" />
        </mxCell>
        <mxCell id="ihhCMKZN7UIY24i0vxse-840" value="&lt;span style=&quot;color: rgb(0, 127, 255);&quot;&gt;Transaction&lt;/span&gt;" style="ellipse;whiteSpace=wrap;html=1;fillColor=none;strokeColor=#007FFF;" parent="1" vertex="1">
          <mxGeometry x="4660" y="1350" width="80" height="80" as="geometry" />
        </mxCell>
        <mxCell id="ihhCMKZN7UIY24i0vxse-842" value="Approve/reject material/labbour requests" style="whiteSpace=wrap;html=1;fillColor=none;strokeColor=#007FFF;" parent="1" vertex="1">
          <mxGeometry x="4800" y="1470" width="240" height="120" as="geometry" />
        </mxCell>
        <mxCell id="ihhCMKZN7UIY24i0vxse-846" style="edgeStyle=orthogonalEdgeStyle;rounded=0;orthogonalLoop=1;jettySize=auto;html=1;entryX=0.25;entryY=0;entryDx=0;entryDy=0;" parent="1" source="ihhCMKZN7UIY24i0vxse-844" target="ihhCMKZN7UIY24i0vxse-842" edge="1">
          <mxGeometry relative="1" as="geometry" />
        </mxCell>
        <mxCell id="ihhCMKZN7UIY24i0vxse-844" value="&lt;font color=&quot;#007fff&quot;&gt;Bank &amp;amp; Budget&lt;/font&gt;" style="ellipse;whiteSpace=wrap;html=1;fillColor=none;strokeColor=#007FFF;" parent="1" vertex="1">
          <mxGeometry x="4820" y="1350" width="80" height="80" as="geometry" />
        </mxCell>
      </root>
    </mxGraphModel>
  </diagram>
</mxfile>
